DavidX-Light_draw_HB.ufo
<glyph name="quotedbl" format="1">
  <advance width="1009"/>
  <unicode hex="0022"/>
  <outline>
    <contour>
      <point x="221" y="939" type="line" smooth="yes"/>
      <point x="221" y="956"/>
      <point x="221" y="975"/>
      <point x="229" y="987" type="curve" smooth="yes"/>
      <point x="255" y="1018"/>
      <point x="308" y="1077"/>
      <point x="344" y="1113" type="curve" smooth="yes"/>
      <point x="351" y="1120"/>
      <point x="359" y="1122"/>
      <point x="364" y="1122" type="curve" smooth="yes"/>
      <point x="369" y="1122"/>
      <point x="375" y="1118"/>
      <point x="378" y="1113" type="curve" smooth="yes"/>
      <point x="385" y="1100"/>
      <point x="385" y="1089"/>
      <point x="389" y="1062" type="curve" smooth="yes"/>
      <point x="390" y="1038"/>
      <point x="395" y="963"/>
      <point x="395" y="925" type="curve" smooth="yes"/>
      <point x="395" y="903"/>
      <point x="389" y="865"/>
      <point x="385" y="837" type="curve" smooth="yes"/>
      <point x="378" y="776"/>
      <point x="353" y="617"/>
      <point x="332" y="487" type="curve" smooth="yes"/>
      <point x="328" y="466"/>
      <point x="317" y="459"/>
      <point x="303" y="459" type="curve" smooth="yes"/>
      <point x="296" y="459"/>
      <point x="282" y="466"/>
      <point x="282" y="489" type="curve" smooth="yes"/>
    </contour>
    <contour>
      <point x="641" y="939" type="line"/>
      <point x="641" y="956"/>
      <point x="641" y="975"/>
      <point x="650" y="987" type="curve" smooth="yes"/>
      <point x="676" y="1018"/>
      <point x="730" y="1077"/>
      <point x="765" y="1113" type="curve" smooth="yes"/>
      <point x="773" y="1120"/>
      <point x="780" y="1122"/>
      <point x="785" y="1122" type="curve" smooth="yes"/>
      <point x="790" y="1122"/>
      <point x="795" y="1118"/>
      <point x="799" y="1113" type="curve" smooth="yes"/>
      <point x="807" y="1100"/>
      <point x="807" y="1089"/>
      <point x="810" y="1062" type="curve" smooth="yes"/>
      <point x="812" y="1038"/>
      <point x="816" y="963"/>
      <point x="816" y="925" type="curve" smooth="yes"/>
      <point x="816" y="903"/>
      <point x="810" y="865"/>
      <point x="807" y="837" type="curve" smooth="yes"/>
      <point x="799" y="776"/>
      <point x="774" y="617"/>
      <point x="753" y="487" type="curve" smooth="yes"/>
      <point x="749" y="466"/>
      <point x="739" y="459"/>
      <point x="724" y="459" type="curve" smooth="yes"/>
      <point x="717" y="459"/>
      <point x="703" y="466"/>
      <point x="703" y="489" type="curve"/>
    </contour>
  </outline>
</glyph>
<glyph name="numbersign" format="1">
  <advance width="1018"/>
  <unicode hex="0023"/>
  <outline>
    <contour>
      <point x="732" y="1236" type="curve" smooth="yes"/>
      <point x="735" y="1258"/>
      <point x="740" y="1276"/>
      <point x="756" y="1286" type="curve" smooth="yes"/>
      <point x="803" y="1319" type="line"/>
      <point x="816" y="1327"/>
      <point x="826" y="1335"/>
      <point x="835" y="1335" type="curve" smooth="yes"/>
      <point x="843" y="1335"/>
      <point x="848" y="1332"/>
      <point x="848" y="1320" type="curve" smooth="yes"/>
      <point x="848" y="1305"/>
      <point x="835" y="1265"/>
      <point x="828" y="1235" type="curve" smooth="yes"/>
      <point x="767" y="968"/>
      <point x="760" y="942"/>
      <point x="760" y="941" type="curve" smooth="yes"/>
      <point x="760" y="935"/>
      <point x="763" y="934"/>
      <point x="769" y="934" type="curve" smooth="yes"/>
      <point x="975" y="934" type="line" smooth="yes"/>
      <point x="995" y="934"/>
      <point x="1002" y="927"/>
      <point x="1002" y="916" type="curve" smooth="yes"/>
      <point x="1002" y="908"/>
      <point x="998" y="901"/>
      <point x="993" y="893" type="curve" smooth="yes"/>
      <point x="966" y="850"/>
      <point x="937" y="817"/>
      <point x="910" y="785" type="curve" smooth="yes"/>
      <point x="903" y="776"/>
      <point x="889" y="771"/>
      <point x="865" y="771" type="curve" smooth="yes"/>
      <point x="737" y="771" type="line" smooth="yes"/>
      <point x="722" y="771"/>
      <point x="718" y="767"/>
      <point x="717" y="756" type="curve" smooth="yes"/>
      <point x="662" y="491" type="line" smooth="yes"/>
      <point x="662" y="486"/>
      <point x="663" y="482"/>
      <point x="670" y="482" type="curve" smooth="yes"/>
      <point x="864" y="482" type="line" smooth="yes"/>
      <point x="884" y="482"/>
      <point x="891" y="475"/>
      <point x="891" y="464" type="curve" smooth="yes"/>
      <point x="891" y="457"/>
      <point x="887" y="450"/>
      <point x="882" y="441" type="curve" smooth="yes"/>
      <point x="855" y="398"/>
      <point x="826" y="366"/>
      <point x="799" y="333" type="curve" smooth="yes"/>
      <point x="792" y="325"/>
      <point x="778" y="319"/>
      <point x="754" y="319" type="curve" smooth="yes"/>
      <point x="636" y="319" type="line" smooth="yes"/>
      <point x="622" y="319"/>
      <point x="622" y="310"/>
      <point x="620" y="306" type="curve" smooth="yes"/>
      <point x="600" y="210"/>
      <point x="585" y="115"/>
      <point x="566" y="29" type="curve" smooth="yes"/>
      <point x="561" y="2"/>
      <point x="552" y="-24"/>
      <point x="541" y="-38" type="curve"/>
      <point x="541" y="-38"/>
      <point x="509" y="-74"/>
      <point x="489" y="-95" type="curve" smooth="yes"/>
      <point x="477" y="-108"/>
      <point x="466" y="-118"/>
      <point x="460" y="-118" type="curve" smooth="yes"/>
      <point x="448" y="-118"/>
      <point x="441" y="-111"/>
      <point x="441" y="-101" type="curve" smooth="yes"/>
      <point x="441" y="-93"/>
      <point x="452" y="-52"/>
      <point x="459" y="-29" type="curve" smooth="yes"/>
      <point x="486" y="72"/>
      <point x="547" y="305"/>
      <point x="547" y="312" type="curve" smooth="yes"/>
      <point x="547" y="315"/>
      <point x="545" y="319"/>
      <point x="536" y="319" type="curve" smooth="yes"/>
      <point x="317" y="319" type="line" smooth="yes"/>
      <point x="306" y="319"/>
      <point x="303" y="313"/>
      <point x="301" y="305" type="curve" smooth="yes"/>
      <point x="242" y="29" type="line" smooth="yes"/>
      <point x="236" y="2"/>
      <point x="228" y="-24"/>
      <point x="217" y="-38" type="curve"/>
      <point x="217" y="-38"/>
      <point x="185" y="-74"/>
      <point x="165" y="-95" type="curve" smooth="yes"/>
      <point x="152" y="-108"/>
      <point x="142" y="-118"/>
      <point x="137" y="-118" type="curve" smooth="yes"/>
      <point x="123" y="-118"/>
      <point x="116" y="-111"/>
      <point x="116" y="-101" type="curve" smooth="yes"/>
      <point x="116" y="-93"/>
      <point x="127" y="-52"/>
      <point x="135" y="-29" type="curve" smooth="yes"/>
      <point x="166" y="79"/>
      <point x="197" y="188"/>
      <point x="224" y="306" type="curve" smooth="yes"/>
      <point x="224" y="312"/>
      <point x="222" y="319"/>
      <point x="214" y="319" type="curve" smooth="yes"/>
      <point x="18" y="319" type="line" smooth="yes"/>
      <point x="-2" y="319"/>
      <point x="-9" y="326"/>
      <point x="-9" y="335" type="curve" smooth="yes"/>
      <point x="-9" y="340"/>
      <point x="-7" y="346"/>
      <point x="-5" y="349" type="curve" smooth="yes"/>
      <point x="24" y="396"/>
      <point x="68" y="448"/>
      <point x="88" y="468" type="curve" smooth="yes"/>
      <point x="102" y="480"/>
      <point x="115" y="482"/>
      <point x="125" y="482" type="curve" smooth="yes"/>
      <point x="255" y="482" type="line" smooth="yes"/>
      <point x="267" y="482"/>
      <point x="269" y="489"/>
      <point x="269" y="493" type="curve" smooth="yes"/>
      <point x="289" y="579"/>
      <point x="306" y="669"/>
      <point x="325" y="760" type="curve" smooth="yes"/>
      <point x="325" y="765"/>
      <point x="321" y="771"/>
      <point x="315" y="771" type="curve" smooth="yes"/>
      <point x="129" y="771" type="line" smooth="yes"/>
      <point x="109" y="771"/>
      <point x="102" y="778"/>
      <point x="102" y="787" type="curve" smooth="yes"/>
      <point x="102" y="792"/>
      <point x="104" y="797"/>
      <point x="106" y="801" type="curve" smooth="yes"/>
      <point x="135" y="848"/>
      <point x="179" y="900"/>
      <point x="199" y="920" type="curve" smooth="yes"/>
      <point x="214" y="932"/>
      <point x="226" y="934"/>
      <point x="236" y="934" type="curve" smooth="yes"/>
      <point x="346" y="934" type="line" smooth="yes"/>
      <point x="355" y="934"/>
      <point x="361" y="939"/>
      <point x="362" y="948" type="curve" smooth="yes"/>
      <point x="414" y="1236" type="line" smooth="yes"/>
      <point x="417" y="1258"/>
      <point x="423" y="1276"/>
      <point x="439" y="1286" type="curve" smooth="yes"/>
      <point x="486" y="1319" type="line"/>
      <point x="498" y="1327"/>
      <point x="509" y="1335"/>
      <point x="518" y="1335" type="curve" smooth="yes"/>
      <point x="525" y="1335"/>
      <point x="530" y="1332"/>
      <point x="530" y="1320" type="curve" smooth="yes"/>
      <point x="530" y="1305"/>
      <point x="518" y="1265"/>
      <point x="511" y="1235" type="curve" smooth="yes"/>
      <point x="448" y="970"/>
      <point x="443" y="941"/>
      <point x="443" y="941" type="curve" smooth="yes"/>
      <point x="443" y="935"/>
      <point x="450" y="934"/>
      <point x="455" y="934" type="curve" smooth="yes"/>
      <point x="665" y="934" type="line" smooth="yes"/>
      <point x="674" y="934"/>
      <point x="679" y="942"/>
      <point x="681" y="948" type="curve" smooth="yes"/>
      <point x="699" y="1045"/>
      <point x="715" y="1144"/>
    </contour>
    <contour>
      <point x="342" y="489" type="line"/>
      <point x="342" y="484"/>
      <point x="346" y="482"/>
      <point x="355" y="482" type="curve" smooth="yes"/>
      <point x="568" y="482" type="line" smooth="yes"/>
      <point x="583" y="482"/>
      <point x="588" y="489"/>
      <point x="588" y="494" type="curve" smooth="yes"/>
      <point x="588" y="496"/>
      <point x="643" y="751"/>
      <point x="643" y="761" type="curve" smooth="yes"/>
      <point x="643" y="765"/>
      <point x="640" y="771"/>
      <point x="631" y="771" type="curve" smooth="yes"/>
      <point x="417" y="771" type="line" smooth="yes"/>
      <point x="410" y="771"/>
      <point x="403" y="765"/>
      <point x="402" y="756" type="curve" smooth="yes"/>
    </contour>
  </outline>
</glyph>
<glyph name="quotesingle" format="1">
  <advance width="556"/>
  <unicode hex="0027"/>
  <outline>
    <contour>
      <point x="221" y="939" type="line"/>
      <point x="221" y="956"/>
      <point x="221" y="975"/>
      <point x="229" y="987" type="curve" smooth="yes"/>
      <point x="255" y="1018"/>
      <point x="308" y="1077"/>
      <point x="344" y="1113" type="curve" smooth="yes"/>
      <point x="351" y="1120"/>
      <point x="359" y="1122"/>
      <point x="364" y="1122" type="curve" smooth="yes"/>
      <point x="369" y="1122"/>
      <point x="375" y="1118"/>
      <point x="378" y="1113" type="curve" smooth="yes"/>
      <point x="385" y="1100"/>
      <point x="385" y="1089"/>
      <point x="389" y="1062" type="curve" smooth="yes"/>
      <point x="390" y="1038"/>
      <point x="395" y="963"/>
      <point x="395" y="925" type="curve" smooth="yes"/>
      <point x="395" y="903"/>
      <point x="389" y="860"/>
      <point x="385" y="837" type="curve" smooth="yes"/>
      <point x="375" y="776"/>
      <point x="353" y="617"/>
      <point x="332" y="487" type="curve" smooth="yes"/>
      <point x="328" y="466"/>
      <point x="317" y="459"/>
      <point x="303" y="459" type="curve" smooth="yes"/>
      <point x="296" y="459"/>
      <point x="282" y="466"/>
      <point x="282" y="489" type="curve"/>
    </contour>
  </outline>
</glyph>
<glyph name="slash" format="1">
  <advance width="732"/>
  <unicode hex="002F"/>
  <outline>
    <contour>
      <point x="301" y="479" type="curve" smooth="yes"/>
      <point x="417" y="767"/>
      <point x="516" y="1029"/>
      <point x="541" y="1096" type="curve" smooth="yes"/>
      <point x="549" y="1118"/>
      <point x="556" y="1131"/>
      <point x="571" y="1145" type="curve"/>
      <point x="638" y="1201" type="line" smooth="yes"/>
      <point x="648" y="1209"/>
      <point x="663" y="1219"/>
      <point x="674" y="1219" type="curve" smooth="yes"/>
      <point x="681" y="1219"/>
      <point x="686" y="1211"/>
      <point x="686" y="1206" type="curve" smooth="yes"/>
      <point x="686" y="1199"/>
      <point x="681" y="1180"/>
      <point x="677" y="1170" type="curve" smooth="yes"/>
      <point x="624" y="1036"/>
      <point x="466" y="656"/>
      <point x="407" y="508" type="curve" smooth="yes"/>
      <point x="330" y="313"/>
      <point x="263" y="142"/>
      <point x="199" y="-7" type="curve" smooth="yes"/>
      <point x="179" y="-53"/>
      <point x="165" y="-86"/>
      <point x="151" y="-101" type="curve" smooth="yes"/>
      <point x="123" y="-125"/>
      <point x="102" y="-144"/>
      <point x="81" y="-156" type="curve" smooth="yes"/>
      <point x="72" y="-161"/>
      <point x="67" y="-163"/>
      <point x="61" y="-163" type="curve" smooth="yes"/>
      <point x="48" y="-163"/>
      <point x="41" y="-156"/>
      <point x="41" y="-145" type="curve" smooth="yes"/>
      <point x="41" y="-138"/>
      <point x="45" y="-127"/>
      <point x="48" y="-118" type="curve" smooth="yes"/>
      <point x="99" y="4"/>
      <point x="200" y="229"/>
    </contour>
  </outline>
</glyph>
<glyph name="zero" format="1">
  <advance width="1018"/>
  <unicode hex="0030"/>
  <outline>
    <contour>
      <point x="135" y="609" type="curve" smooth="yes"/>
      <point x="135" y="747"/>
      <point x="156" y="963"/>
      <point x="248" y="1084" type="curve" smooth="yes"/>
      <point x="328" y="1188"/>
      <point x="402" y="1267"/>
      <point x="523" y="1267" type="curve" smooth="yes"/>
      <point x="660" y="1267"/>
      <point x="774" y="1168"/>
      <point x="830" y="1074" type="curve" smooth="yes"/>
      <point x="900" y="954"/>
      <point x="908" y="767"/>
      <point x="908" y="629" type="curve" smooth="yes"/>
      <point x="908" y="570"/>
      <point x="905" y="494"/>
      <point x="884" y="407" type="curve" smooth="yes"/>
      <point x="865" y="337"/>
      <point x="821" y="185"/>
      <point x="708" y="77" type="curve" smooth="yes"/>
      <point x="656" y="29"/>
      <point x="597" y="-29"/>
      <point x="491" y="-29" type="curve" smooth="yes"/>
      <point x="375" y="-29"/>
      <point x="291" y="31"/>
      <point x="224" y="138" type="curve" smooth="yes"/>
      <point x="169" y="228"/>
      <point x="135" y="438"/>
    </contour>
    <contour>
      <point x="561" y="147" type="curve" smooth="yes"/>
      <point x="597" y="147"/>
      <point x="645" y="158"/>
      <point x="667" y="185" type="curve" smooth="yes"/>
      <point x="696" y="221"/>
      <point x="715" y="292"/>
      <point x="725" y="362" type="curve" smooth="yes"/>
      <point x="737" y="436"/>
      <point x="747" y="515"/>
      <point x="747" y="619" type="curve" smooth="yes"/>
      <point x="747" y="730"/>
      <point x="733" y="823"/>
      <point x="713" y="901" type="curve" smooth="yes"/>
      <point x="683" y="1023"/>
      <point x="585" y="1100"/>
      <point x="466" y="1100" type="curve" smooth="yes"/>
      <point x="376" y="1100"/>
      <point x="347" y="1029"/>
      <point x="337" y="993" type="curve" smooth="yes"/>
      <point x="306" y="896"/>
      <point x="294" y="781"/>
      <point x="294" y="656" type="curve" smooth="yes"/>
      <point x="294" y="520"/>
      <point x="317" y="375"/>
      <point x="344" y="292" type="curve" smooth="yes"/>
      <point x="368" y="224"/>
      <point x="446" y="147"/>
    </contour>
  </outline>
</glyph>
<glyph name="one" format="1">
  <advance width="1018"/>
  <unicode hex="0031"/>
  <outline>
    <contour>
      <point x="97" y="29" type="curve" smooth="yes"/>
      <point x="125" y="77"/>
      <point x="145" y="108"/>
      <point x="171" y="144" type="curve" smooth="yes"/>
      <point x="179" y="158"/>
      <point x="188" y="166"/>
      <point x="219" y="166" type="curve" smooth="yes"/>
      <point x="375" y="166" type="line" smooth="yes"/>
      <point x="410" y="166"/>
      <point x="441" y="195"/>
      <point x="443" y="246" type="curve" smooth="yes"/>
      <point x="443" y="285"/>
      <point x="445" y="326"/>
      <point x="445" y="368" type="curve" smooth="yes"/>
      <point x="445" y="545"/>
      <point x="438" y="737"/>
      <point x="421" y="887" type="curve" smooth="yes"/>
      <point x="412" y="971"/>
      <point x="380" y="1023"/>
      <point x="310" y="1023" type="curve" smooth="yes"/>
      <point x="235" y="1023" type="line" smooth="yes"/>
      <point x="217" y="1023"/>
      <point x="190" y="1027"/>
      <point x="190" y="1050" type="curve" smooth="yes"/>
      <point x="190" y="1055"/>
      <point x="192" y="1062"/>
      <point x="197" y="1068" type="curve" smooth="yes"/>
      <point x="263" y="1127"/>
      <point x="414" y="1228"/>
      <point x="515" y="1279" type="curve" smooth="yes"/>
      <point x="523" y="1285"/>
      <point x="532" y="1286"/>
      <point x="541" y="1286" type="curve" smooth="yes"/>
      <point x="561" y="1286"/>
      <point x="577" y="1274"/>
      <point x="581" y="1249" type="curve" smooth="yes"/>
      <point x="595" y="1149"/>
      <point x="600" y="910"/>
      <point x="600" y="903" type="curve" smooth="yes"/>
      <point x="600" y="824"/>
      <point x="611" y="313"/>
      <point x="611" y="228" type="curve" smooth="yes"/>
      <point x="611" y="190"/>
      <point x="624" y="166"/>
      <point x="665" y="166" type="curve" smooth="yes"/>
      <point x="864" y="166" type="line" smooth="yes"/>
      <point x="872" y="166"/>
      <point x="884" y="158"/>
      <point x="884" y="147" type="curve" smooth="yes"/>
      <point x="884" y="142"/>
      <point x="880" y="137"/>
      <point x="876" y="131" type="curve" smooth="yes"/>
      <point x="851" y="91"/>
      <point x="828" y="67"/>
      <point x="790" y="22" type="curve" smooth="yes"/>
      <point x="771" y="-2"/>
      <point x="763" y="-2"/>
      <point x="737" y="-2" type="curve" smooth="yes"/>
      <point x="135" y="-2" type="line" smooth="yes"/>
      <point x="113" y="-2"/>
      <point x="91" y="-2"/>
      <point x="91" y="12" type="curve" smooth="yes"/>
      <point x="91" y="16"/>
      <point x="93" y="22"/>
    </contour>
  </outline>
</glyph>
<glyph name="currency" format="1">
  <advance width="1147"/>
  <unicode hex="00A4"/>
  <outline>
    <contour>
      <point x="541" y="163" type="curve" smooth="yes"/>
      <point x="617" y="163"/>
      <point x="692" y="185"/>
      <point x="756" y="233" type="curve"/>
      <point x="814" y="171"/>
      <point x="884" y="99"/>
      <point x="884" y="99" type="curve"/>
      <point x="893" y="91"/>
      <point x="900" y="88"/>
      <point x="914" y="102" type="curve" smooth="yes"/>
      <point x="957" y="145" type="line" smooth="yes"/>
      <point x="966" y="156"/>
      <point x="970" y="163"/>
      <point x="957" y="178" type="curve"/>
      <point x="826" y="303" type="line"/>
      <point x="872" y="364"/>
      <point x="901" y="438"/>
      <point x="901" y="511" type="curve" smooth="yes"/>
      <point x="901" y="586"/>
      <point x="880" y="648"/>
      <point x="848" y="699" type="curve"/>
      <point x="957" y="803" type="line" smooth="yes"/>
      <point x="970" y="816"/>
      <point x="966" y="824"/>
      <point x="957" y="835" type="curve" smooth="yes"/>
      <point x="914" y="879" type="line" smooth="yes"/>
      <point x="900" y="893"/>
      <point x="893" y="889"/>
      <point x="884" y="880" type="curve"/>
      <point x="884" y="880"/>
      <point x="831" y="824"/>
      <point x="778" y="771" type="curve"/>
      <point x="733" y="803"/>
      <point x="677" y="823"/>
      <point x="622" y="823" type="curve" smooth="yes"/>
      <point x="530" y="823"/>
      <point x="453" y="795"/>
      <point x="390" y="747" type="curve"/>
      <point x="333" y="809"/>
      <point x="263" y="880"/>
      <point x="263" y="880" type="curve"/>
      <point x="255" y="889"/>
      <point x="248" y="893"/>
      <point x="233" y="879" type="curve" smooth="yes"/>
      <point x="190" y="835" type="line" smooth="yes"/>
      <point x="181" y="824"/>
      <point x="178" y="816"/>
      <point x="190" y="803" type="curve" smooth="yes"/>
      <point x="323" y="674" type="line"/>
      <point x="279" y="614"/>
      <point x="256" y="541"/>
      <point x="256" y="462" type="curve" smooth="yes"/>
      <point x="256" y="400"/>
      <point x="276" y="340"/>
      <point x="310" y="292" type="curve"/>
      <point x="190" y="178" type="line"/>
      <point x="178" y="163"/>
      <point x="181" y="156"/>
      <point x="190" y="145" type="curve" smooth="yes"/>
      <point x="233" y="102" type="line" smooth="yes"/>
      <point x="248" y="88"/>
      <point x="255" y="91"/>
      <point x="263" y="99" type="curve"/>
      <point x="263" y="99"/>
      <point x="323" y="163"/>
      <point x="378" y="221" type="curve"/>
      <point x="424" y="186"/>
      <point x="479" y="163"/>
    </contour>
    <contour>
      <point x="543" y="722" type="curve" smooth="yes"/>
      <point x="694" y="722"/>
      <point x="778" y="606"/>
      <point x="778" y="470" type="curve" smooth="yes"/>
      <point x="778" y="368"/>
      <point x="713" y="274"/>
      <point x="613" y="274" type="curve" smooth="yes"/>
      <point x="450" y="274"/>
      <point x="375" y="364"/>
      <point x="375" y="508" type="curve" smooth="yes"/>
      <point x="375" y="609"/>
      <point x="439" y="722"/>
    </contour>
  </outline>
</glyph>
<glyph name="periodcentered" format="1">
  <advance width="655"/>
  <unicode hex="00B7"/>
  <outline>
    <contour>
      <point x="204" y="566" type="curve" smooth="yes"/>
      <point x="202" y="568"/>
      <point x="197" y="571"/>
      <point x="197" y="579" type="curve" smooth="yes"/>
      <point x="197" y="585"/>
      <point x="199" y="590"/>
      <point x="207" y="595" type="curve" smooth="yes"/>
      <point x="222" y="609"/>
      <point x="258" y="648"/>
      <point x="298" y="697" type="curve" smooth="yes"/>
      <point x="303" y="704"/>
      <point x="308" y="708"/>
      <point x="313" y="708" type="curve" smooth="yes"/>
      <point x="317" y="708"/>
      <point x="321" y="704"/>
      <point x="328" y="699" type="curve" smooth="yes"/>
      <point x="344" y="684"/>
      <point x="400" y="626"/>
      <point x="438" y="602" type="curve" smooth="yes"/>
      <point x="445" y="599"/>
      <point x="448" y="592"/>
      <point x="448" y="586" type="curve" smooth="yes"/>
      <point x="448" y="583"/>
      <point x="446" y="579"/>
      <point x="443" y="575" type="curve" smooth="yes"/>
      <point x="421" y="550"/>
      <point x="359" y="480"/>
      <point x="344" y="468" type="curve" smooth="yes"/>
      <point x="339" y="462"/>
      <point x="333" y="460"/>
      <point x="328" y="460" type="curve" smooth="yes"/>
      <point x="325" y="460"/>
      <point x="321" y="462"/>
      <point x="315" y="466" type="curve" smooth="yes"/>
      <point x="272" y="496"/>
      <point x="217" y="552"/>
    </contour>
  </outline>
</glyph>
<glyph name="uni0308" format="1">
  <advance width="0"/>
  <unicode hex="0308"/>
  <outline>
    <contour>
      <point x="-571" y="1226" type="curve" smooth="yes"/>
      <point x="-552" y="1199"/>
      <point x="-515" y="1166"/>
      <point x="-486" y="1149" type="curve" smooth="yes"/>
      <point x="-484" y="1149"/>
      <point x="-479" y="1147"/>
      <point x="-473" y="1147" type="curve" smooth="yes"/>
      <point x="-470" y="1147"/>
      <point x="-464" y="1149"/>
      <point x="-462" y="1152" type="curve" smooth="yes"/>
      <point x="-443" y="1172"/>
      <point x="-412" y="1204"/>
      <point x="-393" y="1231" type="curve" smooth="yes"/>
      <point x="-390" y="1236"/>
      <point x="-387" y="1242"/>
      <point x="-387" y="1247" type="curve" smooth="yes"/>
      <point x="-387" y="1255"/>
      <point x="-393" y="1260"/>
      <point x="-398" y="1265" type="curve" smooth="yes"/>
      <point x="-417" y="1278"/>
      <point x="-457" y="1312"/>
      <point x="-477" y="1330" type="curve" smooth="yes"/>
      <point x="-484" y="1335"/>
      <point x="-486" y="1337"/>
      <point x="-491" y="1337" type="curve" smooth="yes"/>
      <point x="-496" y="1337"/>
      <point x="-501" y="1335"/>
      <point x="-506" y="1330" type="curve" smooth="yes"/>
      <point x="-518" y="1315"/>
      <point x="-556" y="1272"/>
      <point x="-573" y="1255" type="curve" smooth="yes"/>
      <point x="-577" y="1251"/>
      <point x="-579" y="1245"/>
      <point x="-579" y="1240" type="curve" smooth="yes"/>
      <point x="-579" y="1236"/>
      <point x="-575" y="1231"/>
    </contour>
    <contour>
      <point x="-274" y="1229" type="curve" smooth="yes"/>
      <point x="-253" y="1202"/>
      <point x="-217" y="1170"/>
      <point x="-186" y="1154" type="curve" smooth="yes"/>
      <point x="-185" y="1151"/>
      <point x="-181" y="1149"/>
      <point x="-176" y="1149" type="curve" smooth="yes"/>
      <point x="-172" y="1149"/>
      <point x="-166" y="1152"/>
      <point x="-163" y="1154" type="curve" smooth="yes"/>
      <point x="-144" y="1175"/>
      <point x="-113" y="1206"/>
      <point x="-95" y="1233" type="curve" smooth="yes"/>
      <point x="-93" y="1238"/>
      <point x="-89" y="1245"/>
      <point x="-89" y="1253" type="curve" smooth="yes"/>
      <point x="-89" y="1258"/>
      <point x="-93" y="1264"/>
      <point x="-99" y="1267" type="curve" smooth="yes"/>
      <point x="-120" y="1281"/>
      <point x="-158" y="1315"/>
      <point x="-179" y="1334" type="curve" smooth="yes"/>
      <point x="-185" y="1337"/>
      <point x="-186" y="1341"/>
      <point x="-193" y="1341" type="curve" smooth="yes"/>
      <point x="-199" y="1341"/>
      <point x="-204" y="1337"/>
      <point x="-208" y="1332" type="curve" smooth="yes"/>
      <point x="-219" y="1317"/>
      <point x="-258" y="1276"/>
      <point x="-276" y="1258" type="curve" smooth="yes"/>
      <point x="-279" y="1253"/>
      <point x="-279" y="1247"/>
      <point x="-279" y="1243" type="curve" smooth="yes"/>
      <point x="-279" y="1238"/>
      <point x="-277" y="1233"/>
    </contour>
  </outline>
</glyph>
<glyph name="uni0595" format="1">
  <advance width="0"/>
  <unicode hex="0595"/>
  <outline>
    <contour>
      <point x="188" y="1544" type="curve" smooth="yes"/>
      <point x="188" y="1559"/>
      <point x="192" y="1575"/>
      <point x="214" y="1575" type="curve" smooth="yes"/>
      <point x="276" y="1575" type="line" smooth="yes"/>
      <point x="296" y="1575"/>
      <point x="303" y="1561"/>
      <point x="303" y="1546" type="curve" smooth="yes"/>
      <point x="303" y="1402"/>
      <point x="294" y="1264"/>
      <point x="292" y="1253" type="curve" smooth="yes"/>
      <point x="289" y="1231"/>
      <point x="284" y="1226"/>
      <point x="267" y="1226" type="curve" smooth="yes"/>
      <point x="224" y="1226" type="line" smooth="yes"/>
      <point x="208" y="1226"/>
      <point x="202" y="1231"/>
      <point x="199" y="1253" type="curve" smooth="yes"/>
      <point x="195" y="1279"/>
      <point x="188" y="1399"/>
    </contour>
    <contour>
      <point x="552" y="1509" type="curve" smooth="yes"/>
      <point x="552" y="1467"/>
      <point x="520" y="1435"/>
      <point x="479" y="1435" type="curve" smooth="yes"/>
      <point x="439" y="1435"/>
      <point x="407" y="1467"/>
      <point x="407" y="1509" type="curve" smooth="yes"/>
      <point x="407" y="1548"/>
      <point x="439" y="1580"/>
      <point x="479" y="1580" type="curve" smooth="yes"/>
      <point x="520" y="1580"/>
      <point x="552" y="1548"/>
    </contour>
    <contour>
      <point x="552" y="1286" type="curve" smooth="yes"/>
      <point x="552" y="1245"/>
      <point x="520" y="1213"/>
      <point x="479" y="1213" type="curve" smooth="yes"/>
      <point x="439" y="1213"/>
      <point x="407" y="1245"/>
      <point x="407" y="1286" type="curve" smooth="yes"/>
      <point x="407" y="1327"/>
      <point x="439" y="1358"/>
      <point x="479" y="1358" type="curve" smooth="yes"/>
      <point x="520" y="1358"/>
      <point x="552" y="1327"/>
    </contour>
  </outline>
</glyph>
<glyph name="uni059D" format="1">
  <advance width="0"/>
  <unicode hex="059D"/>
  <outline>
    <contour>
      <point x="325" y="1588" type="curve" smooth="yes"/>
      <point x="165" y="1525"/>
      <point x="133" y="1389"/>
      <point x="133" y="1222" type="curve" smooth="yes"/>
      <point x="133" y="1201"/>
      <point x="144" y="1195"/>
      <point x="159" y="1195" type="curve" smooth="yes"/>
      <point x="202" y="1195" type="line" smooth="yes"/>
      <point x="219" y="1195"/>
      <point x="228" y="1201"/>
      <point x="228" y="1222" type="curve" smooth="yes"/>
      <point x="228" y="1371"/>
      <point x="260" y="1446"/>
      <point x="373" y="1496" type="curve" smooth="yes"/>
      <point x="383" y="1502"/>
      <point x="389" y="1507"/>
      <point x="389" y="1515" type="curve" smooth="yes"/>
      <point x="389" y="1520"/>
      <point x="385" y="1529"/>
      <point x="382" y="1534" type="curve"/>
      <point x="364" y="1579" type="line"/>
      <point x="359" y="1588"/>
      <point x="351" y="1593"/>
      <point x="342" y="1593" type="curve" smooth="yes"/>
      <point x="337" y="1593"/>
      <point x="332" y="1592"/>
    </contour>
  </outline>
</glyph>
<glyph name="uni059E" format="1">
  <advance width="0"/>
  <unicode hex="059E"/>
  <outline>
    <contour>
      <point x="323" y="1597" type="curve" smooth="yes"/>
      <point x="183" y="1537"/>
      <point x="137" y="1405"/>
      <point x="137" y="1238" type="curve" smooth="yes"/>
      <point x="137" y="1217"/>
      <point x="147" y="1211"/>
      <point x="163" y="1211" type="curve" smooth="yes"/>
      <point x="207" y="1211" type="line" smooth="yes"/>
      <point x="222" y="1211"/>
      <point x="231" y="1217"/>
      <point x="231" y="1238" type="curve" smooth="yes"/>
      <point x="231" y="1387"/>
      <point x="272" y="1471"/>
      <point x="369" y="1505" type="curve" smooth="yes"/>
      <point x="380" y="1509"/>
      <point x="385" y="1516"/>
      <point x="385" y="1523" type="curve" smooth="yes"/>
      <point x="385" y="1529"/>
      <point x="382" y="1537"/>
      <point x="378" y="1543" type="curve" smooth="yes"/>
      <point x="361" y="1588" type="line" smooth="yes"/>
      <point x="355" y="1597"/>
      <point x="347" y="1602"/>
      <point x="339" y="1602" type="curve" smooth="yes"/>
      <point x="333" y="1602"/>
      <point x="330" y="1600"/>
    </contour>
    <contour>
      <point x="518" y="1568" type="curve" smooth="yes"/>
      <point x="361" y="1516"/>
      <point x="332" y="1405"/>
      <point x="332" y="1238" type="curve" smooth="yes"/>
      <point x="332" y="1217"/>
      <point x="342" y="1211"/>
      <point x="359" y="1211" type="curve" smooth="yes"/>
      <point x="402" y="1211" type="line" smooth="yes"/>
      <point x="417" y="1211"/>
      <point x="426" y="1217"/>
      <point x="426" y="1238" type="curve" smooth="yes"/>
      <point x="426" y="1387"/>
      <point x="452" y="1441"/>
      <point x="564" y="1477" type="curve" smooth="yes"/>
      <point x="575" y="1481"/>
      <point x="581" y="1488"/>
      <point x="581" y="1495" type="curve" smooth="yes"/>
      <point x="581" y="1500"/>
      <point x="577" y="1509"/>
      <point x="573" y="1515" type="curve"/>
      <point x="556" y="1559" type="line"/>
      <point x="550" y="1568"/>
      <point x="543" y="1573"/>
      <point x="534" y="1573" type="curve" smooth="yes"/>
      <point x="529" y="1573"/>
      <point x="525" y="1570"/>
    </contour>
  </outline>
</glyph>
<glyph name="uni059F" format="1">
  <advance width="0"/>
  <unicode hex="059F"/>
  <outline>
    <contour>
      <point x="123" y="1441" type="curve" smooth="yes"/>
      <point x="123" y="1334"/>
      <point x="208" y="1249"/>
      <point x="315" y="1249" type="curve" smooth="yes"/>
      <point x="337" y="1249"/>
      <point x="359" y="1253"/>
      <point x="378" y="1258" type="curve"/>
      <point x="407" y="1224"/>
      <point x="441" y="1183"/>
      <point x="452" y="1172" type="curve" smooth="yes"/>
      <point x="460" y="1163"/>
      <point x="468" y="1159"/>
      <point x="473" y="1159" type="curve" smooth="yes"/>
      <point x="479" y="1159"/>
      <point x="482" y="1161"/>
      <point x="487" y="1165" type="curve" smooth="yes"/>
      <point x="520" y="1187" type="line" smooth="yes"/>
      <point x="527" y="1192"/>
      <point x="532" y="1197"/>
      <point x="532" y="1204" type="curve" smooth="yes"/>
      <point x="532" y="1209"/>
      <point x="529" y="1217"/>
      <point x="525" y="1224" type="curve" smooth="yes"/>
      <point x="523" y="1229"/>
      <point x="493" y="1279"/>
      <point x="468" y="1320" type="curve"/>
      <point x="494" y="1353"/>
      <point x="509" y="1394"/>
      <point x="509" y="1441" type="curve" smooth="yes"/>
      <point x="509" y="1548"/>
      <point x="423" y="1635"/>
      <point x="315" y="1635" type="curve" smooth="yes"/>
      <point x="208" y="1635"/>
      <point x="123" y="1548"/>
    </contour>
    <contour>
      <point x="212" y="1441" type="curve" smooth="yes"/>
      <point x="212" y="1498"/>
      <point x="258" y="1544"/>
      <point x="313" y="1544" type="curve" smooth="yes"/>
      <point x="371" y="1544"/>
      <point x="417" y="1498"/>
      <point x="417" y="1441" type="curve" smooth="yes"/>
      <point x="417" y="1385"/>
      <point x="371" y="1339"/>
      <point x="313" y="1339" type="curve" smooth="yes"/>
      <point x="258" y="1339"/>
      <point x="212" y="1385"/>
    </contour>
    <contour>
      <point x="964" y="1441" type="curve" smooth="yes"/>
      <point x="964" y="1334"/>
      <point x="880" y="1249"/>
      <point x="773" y="1249" type="curve" smooth="yes"/>
      <point x="751" y="1249"/>
      <point x="730" y="1253"/>
      <point x="710" y="1258" type="curve"/>
      <point x="681" y="1224"/>
      <point x="647" y="1183"/>
      <point x="636" y="1172" type="curve" smooth="yes"/>
      <point x="627" y="1163"/>
      <point x="620" y="1159"/>
      <point x="614" y="1159" type="curve" smooth="yes"/>
      <point x="609" y="1159"/>
      <point x="606" y="1161"/>
      <point x="600" y="1165" type="curve" smooth="yes"/>
      <point x="568" y="1187" type="line" smooth="yes"/>
      <point x="561" y="1192"/>
      <point x="556" y="1197"/>
      <point x="556" y="1204" type="curve" smooth="yes"/>
      <point x="556" y="1209"/>
      <point x="559" y="1217"/>
      <point x="563" y="1224" type="curve" smooth="yes"/>
      <point x="564" y="1229"/>
      <point x="595" y="1279"/>
      <point x="620" y="1320" type="curve"/>
      <point x="593" y="1353"/>
      <point x="579" y="1394"/>
      <point x="579" y="1441" type="curve" smooth="yes"/>
      <point x="579" y="1548"/>
      <point x="665" y="1635"/>
      <point x="773" y="1635" type="curve" smooth="yes"/>
      <point x="880" y="1635"/>
      <point x="964" y="1548"/>
    </contour>
    <contour>
      <point x="876" y="1441" type="curve" smooth="yes"/>
      <point x="876" y="1498"/>
      <point x="830" y="1544"/>
      <point x="774" y="1544" type="curve" smooth="yes"/>
      <point x="717" y="1544"/>
      <point x="670" y="1498"/>
      <point x="670" y="1441" type="curve" smooth="yes"/>
      <point x="670" y="1385"/>
      <point x="717" y="1339"/>
      <point x="774" y="1339" type="curve" smooth="yes"/>
      <point x="830" y="1339"/>
      <point x="876" y="1385"/>
    </contour>
  </outline>
</glyph>
<glyph name="uni05A3" format="1">
  <advance width="0"/>
  <unicode hex="05A3"/>
  <outline>
    <contour>
      <point x="417" y="-158" type="curve" smooth="yes"/>
      <point x="416" y="-137"/>
      <point x="409" y="-131"/>
      <point x="393" y="-131" type="curve" smooth="yes"/>
      <point x="349" y="-131" type="line" smooth="yes"/>
      <point x="333" y="-131"/>
      <point x="325" y="-137"/>
      <point x="325" y="-158" type="curve" smooth="yes"/>
      <point x="325" y="-210"/>
      <point x="323" y="-292"/>
      <point x="323" y="-342" type="curve" smooth="yes"/>
      <point x="323" y="-362"/>
      <point x="313" y="-366"/>
      <point x="306" y="-366" type="curve" smooth="yes"/>
      <point x="248" y="-368"/>
      <point x="149" y="-369"/>
      <point x="129" y="-373" type="curve" smooth="yes"/>
      <point x="111" y="-376"/>
      <point x="104" y="-385"/>
      <point x="104" y="-403" type="curve" smooth="yes"/>
      <point x="104" y="-445" type="line" smooth="yes"/>
      <point x="104" y="-459"/>
      <point x="108" y="-473"/>
      <point x="129" y="-473" type="curve" smooth="yes"/>
      <point x="166" y="-475"/>
      <point x="207" y="-475"/>
      <point x="244" y="-475" type="curve" smooth="yes"/>
      <point x="321" y="-475"/>
      <point x="359" y="-475"/>
      <point x="398" y="-472" type="curve" smooth="yes"/>
      <point x="416" y="-470"/>
      <point x="423" y="-459"/>
      <point x="423" y="-441" type="curve" smooth="yes"/>
      <point x="423" y="-339"/>
      <point x="423" y="-249"/>
    </contour>
  </outline>
</glyph>
<glyph name="uni05A5" format="1">
  <advance width="0"/>
  <unicode hex="05A5"/>
  <outline>
    <contour>
      <point x="200" y="-480" type="curve" smooth="yes"/>
      <point x="359" y="-428"/>
      <point x="387" y="-317"/>
      <point x="387" y="-151" type="curve" smooth="yes"/>
      <point x="387" y="-129"/>
      <point x="376" y="-123"/>
      <point x="361" y="-123" type="curve" smooth="yes"/>
      <point x="317" y="-123" type="line" smooth="yes"/>
      <point x="301" y="-123"/>
      <point x="292" y="-129"/>
      <point x="292" y="-151" type="curve" smooth="yes"/>
      <point x="292" y="-299"/>
      <point x="267" y="-353"/>
      <point x="154" y="-389" type="curve" smooth="yes"/>
      <point x="144" y="-393"/>
      <point x="138" y="-400"/>
      <point x="138" y="-407" type="curve" smooth="yes"/>
      <point x="138" y="-412"/>
      <point x="142" y="-421"/>
      <point x="145" y="-426" type="curve"/>
      <point x="163" y="-472" type="line"/>
      <point x="169" y="-480"/>
      <point x="176" y="-486"/>
      <point x="185" y="-486" type="curve" smooth="yes"/>
      <point x="190" y="-486"/>
      <point x="193" y="-482"/>
    </contour>
  </outline>
</glyph>
<glyph name="uni05AA" format="1">
  <advance width="0"/>
  <unicode hex="05AA"/>
  <outline>
    <contour>
      <point x="270" y="-296" type="curve" smooth="yes"/>
      <point x="179" y="-296"/>
      <point x="171" y="-222"/>
      <point x="171" y="-158" type="curve" smooth="yes"/>
      <point x="171" y="-137"/>
      <point x="161" y="-131"/>
      <point x="145" y="-131" type="curve" smooth="yes"/>
      <point x="99" y="-131" type="line" smooth="yes"/>
      <point x="82" y="-131"/>
      <point x="70" y="-137"/>
      <point x="70" y="-154" type="curve" smooth="yes"/>
      <point x="72" y="-246"/>
      <point x="86" y="-346"/>
      <point x="214" y="-382" type="curve"/>
      <point x="226" y="-506" type="line" smooth="yes"/>
      <point x="228" y="-527"/>
      <point x="235" y="-532"/>
      <point x="251" y="-532" type="curve" smooth="yes"/>
      <point x="291" y="-532" type="line" smooth="yes"/>
      <point x="306" y="-532"/>
      <point x="313" y="-527"/>
      <point x="315" y="-506" type="curve" smooth="yes"/>
      <point x="328" y="-382" type="line"/>
      <point x="455" y="-346"/>
      <point x="470" y="-246"/>
      <point x="472" y="-154" type="curve" smooth="yes"/>
      <point x="472" y="-137"/>
      <point x="459" y="-131"/>
      <point x="443" y="-131" type="curve" smooth="yes"/>
      <point x="396" y="-131" type="line" smooth="yes"/>
      <point x="380" y="-131"/>
      <point x="371" y="-137"/>
      <point x="371" y="-158" type="curve" smooth="yes"/>
      <point x="371" y="-222"/>
      <point x="362" y="-296"/>
    </contour>
  </outline>
</glyph>
<glyph name="uni05AB" format="1">
  <advance width="0"/>
  <unicode hex="05AB"/>
  <outline>
    <contour>
      <point x="95" y="1425" type="curve" smooth="yes"/>
      <point x="166" y="1466"/>
      <point x="323" y="1554"/>
      <point x="387" y="1580" type="curve" smooth="yes"/>
      <point x="395" y="1584"/>
      <point x="400" y="1586"/>
      <point x="405" y="1586" type="curve" smooth="yes"/>
      <point x="410" y="1586"/>
      <point x="416" y="1582"/>
      <point x="419" y="1577" type="curve" smooth="yes"/>
      <point x="443" y="1534" type="line" smooth="yes"/>
      <point x="445" y="1530"/>
      <point x="446" y="1527"/>
      <point x="446" y="1523" type="curve" smooth="yes"/>
      <point x="446" y="1516"/>
      <point x="441" y="1509"/>
      <point x="428" y="1500" type="curve" smooth="yes"/>
      <point x="361" y="1455"/>
      <point x="263" y="1409"/>
      <point x="219" y="1378" type="curve"/>
      <point x="260" y="1353"/>
      <point x="364" y="1299"/>
      <point x="432" y="1257" type="curve" smooth="yes"/>
      <point x="445" y="1247"/>
      <point x="450" y="1240"/>
      <point x="450" y="1233" type="curve" smooth="yes"/>
      <point x="450" y="1229"/>
      <point x="448" y="1226"/>
      <point x="446" y="1222" type="curve" smooth="yes"/>
      <point x="421" y="1180" type="line" smooth="yes"/>
      <point x="417" y="1173"/>
      <point x="412" y="1170"/>
      <point x="407" y="1170" type="curve" smooth="yes"/>
      <point x="402" y="1170"/>
      <point x="396" y="1172"/>
      <point x="389" y="1175" type="curve" smooth="yes"/>
      <point x="325" y="1202"/>
      <point x="161" y="1294"/>
      <point x="95" y="1332" type="curve" smooth="yes"/>
      <point x="84" y="1337"/>
      <point x="79" y="1346"/>
      <point x="79" y="1355" type="curve" smooth="yes"/>
      <point x="79" y="1399" type="line" smooth="yes"/>
      <point x="79" y="1409"/>
      <point x="84" y="1419"/>
    </contour>
  </outline>
</glyph>
<glyph name="hiriqhebrew" format="1">
  <advance width="0"/>
  <unicode hex="05B4"/>
  <outline>
    <contour>
      <point x="235" y="-226" type="curve" smooth="yes"/>
      <point x="235" y="-267"/>
      <point x="202" y="-299"/>
      <point x="163" y="-299" type="curve" smooth="yes"/>
      <point x="122" y="-299"/>
      <point x="89" y="-267"/>
      <point x="89" y="-226" type="curve" smooth="yes"/>
      <point x="89" y="-186"/>
      <point x="122" y="-152"/>
      <point x="163" y="-152" type="curve" smooth="yes"/>
      <point x="202" y="-152"/>
      <point x="235" y="-186"/>
    </contour>
  </outline>
</glyph>
<glyph name="qubutshebrew" format="1">
  <advance width="0"/>
  <unicode hex="05BB"/>
  <outline>
    <contour>
      <point x="236" y="-190" type="curve" smooth="yes"/>
      <point x="236" y="-231"/>
      <point x="204" y="-263"/>
      <point x="163" y="-263" type="curve" smooth="yes"/>
      <point x="123" y="-263"/>
      <point x="89" y="-231"/>
      <point x="89" y="-190" type="curve" smooth="yes"/>
      <point x="89" y="-151"/>
      <point x="123" y="-118"/>
      <point x="163" y="-118" type="curve" smooth="yes"/>
      <point x="204" y="-118"/>
      <point x="236" y="-151"/>
    </contour>
    <contour>
      <point x="641" y="-412" type="curve" smooth="yes"/>
      <point x="641" y="-453"/>
      <point x="609" y="-486"/>
      <point x="570" y="-486" type="curve" smooth="yes"/>
      <point x="529" y="-486"/>
      <point x="496" y="-453"/>
      <point x="496" y="-412" type="curve" smooth="yes"/>
      <point x="496" y="-373"/>
      <point x="529" y="-340"/>
      <point x="570" y="-340" type="curve" smooth="yes"/>
      <point x="609" y="-340"/>
      <point x="641" y="-373"/>
    </contour>
    <contour>
      <point x="439" y="-301" type="curve" smooth="yes"/>
      <point x="439" y="-342"/>
      <point x="407" y="-375"/>
      <point x="366" y="-375" type="curve" smooth="yes"/>
      <point x="326" y="-375"/>
      <point x="294" y="-342"/>
      <point x="294" y="-301" type="curve" smooth="yes"/>
      <point x="294" y="-262"/>
      <point x="326" y="-229"/>
      <point x="366" y="-229" type="curve" smooth="yes"/>
      <point x="407" y="-229"/>
      <point x="439" y="-262"/>
    </contour>
  </outline>
</glyph>
<glyph name="dageshhebrew" format="1">
  <advance width="732"/>
  <unicode hex="05BC"/>
  <outline>
    <contour>
      <point x="459" y="498" type="curve" smooth="yes"/>
      <point x="459" y="459"/>
      <point x="426" y="426"/>
      <point x="387" y="426" type="curve" smooth="yes"/>
      <point x="346" y="426"/>
      <point x="313" y="459"/>
      <point x="313" y="498" type="curve" smooth="yes"/>
      <point x="313" y="539"/>
      <point x="346" y="571"/>
      <point x="387" y="571" type="curve" smooth="yes"/>
      <point x="426" y="571"/>
      <point x="459" y="539"/>
    </contour>
  </outline>
</glyph>
<glyph name="afii67842" format="1">
  <advance width="585"/>
  <unicode hex="05C0"/>
  <outline>
    <contour>
      <point x="246" y="-63" type="curve" smooth="yes"/>
      <point x="246" y="-77"/>
      <point x="249" y="-93"/>
      <point x="270" y="-93" type="curve" smooth="yes"/>
      <point x="313" y="-93" type="line" smooth="yes"/>
      <point x="333" y="-93"/>
      <point x="340" y="-79"/>
      <point x="340" y="-65" type="curve" smooth="yes"/>
      <point x="347" y="256"/>
      <point x="351" y="383"/>
      <point x="351" y="498" type="curve" smooth="yes"/>
      <point x="351" y="645"/>
      <point x="346" y="853"/>
      <point x="340" y="1086" type="curve" smooth="yes"/>
      <point x="340" y="1100"/>
      <point x="333" y="1115"/>
      <point x="313" y="1115" type="curve" smooth="yes"/>
      <point x="270" y="1115" type="line" smooth="yes"/>
      <point x="249" y="1115"/>
      <point x="246" y="1098"/>
      <point x="246" y="1084" type="curve" smooth="yes"/>
      <point x="238" y="857"/>
      <point x="233" y="645"/>
      <point x="233" y="498" type="curve" smooth="yes"/>
      <point x="233" y="383"/>
      <point x="240" y="214"/>
    </contour>
  </outline>
</glyph>
<glyph name="afii57804" format="1">
  <advance width="1303"/>
  <unicode hex="05C1"/>
  <outline>
    <contour>
      <point x="1043" y="1199" type="curve" smooth="yes"/>
      <point x="1043" y="1159"/>
      <point x="1009" y="1127"/>
      <point x="970" y="1127" type="curve" smooth="yes"/>
      <point x="928" y="1127"/>
      <point x="896" y="1159"/>
      <point x="896" y="1199" type="curve" smooth="yes"/>
      <point x="896" y="1240"/>
      <point x="928" y="1272"/>
      <point x="970" y="1272" type="curve" smooth="yes"/>
      <point x="1009" y="1272"/>
      <point x="1043" y="1240"/>
    </contour>
  </outline>
</glyph>
<glyph name="hehebrew" format="1">
  <advance width="1292"/>
  <unicode hex="05D4"/>
  <outline>
    <contour>
      <point x="963" y="676" type="curve" smooth="yes"/>
      <point x="956" y="724"/>
      <point x="935" y="821"/>
      <point x="817" y="821" type="curve" smooth="yes"/>
      <point x="172" y="821" type="line" smooth="yes"/>
      <point x="127" y="821"/>
      <point x="104" y="835"/>
      <point x="104" y="855" type="curve" smooth="yes"/>
      <point x="104" y="862"/>
      <point x="106" y="869"/>
      <point x="111" y="876" type="curve" smooth="yes"/>
      <point x="140" y="921"/>
      <point x="229" y="1033"/>
      <point x="270" y="1070" type="curve" smooth="yes"/>
      <point x="276" y="1075"/>
      <point x="284" y="1081"/>
      <point x="289" y="1081" type="curve" smooth="yes"/>
      <point x="298" y="1081"/>
      <point x="306" y="1075"/>
      <point x="310" y="1059" type="curve" smooth="yes"/>
      <point x="313" y="1043"/>
      <point x="313" y="1014"/>
      <point x="328" y="1002" type="curve" smooth="yes"/>
      <point x="340" y="991"/>
      <point x="364" y="991"/>
      <point x="380" y="991" type="curve"/>
      <point x="848" y="991" type="line"/>
      <point x="893" y="991"/>
      <point x="944" y="989"/>
      <point x="1002" y="944" type="curve" smooth="yes"/>
      <point x="1065" y="898"/>
      <point x="1089" y="833"/>
      <point x="1098" y="753" type="curve" smooth="yes"/>
      <point x="1118" y="586"/>
      <point x="1122" y="339"/>
      <point x="1122" y="142" type="curve" smooth="yes"/>
      <point x="1122" y="125"/>
      <point x="1122" y="116"/>
      <point x="1115" y="99" type="curve" smooth="yes"/>
      <point x="1104" y="72"/>
      <point x="1052" y="-20"/>
      <point x="1033" y="-39" type="curve" smooth="yes"/>
      <point x="1027" y="-45"/>
      <point x="1023" y="-46"/>
      <point x="1018" y="-46" type="curve" smooth="yes"/>
      <point x="1007" y="-46"/>
      <point x="1000" y="-36"/>
      <point x="1000" y="-25" type="curve" smooth="yes"/>
      <point x="991" y="212"/>
      <point x="987" y="520"/>
    </contour>
    <contour>
      <point x="224" y="462" type="curve" smooth="yes"/>
      <point x="224" y="487"/>
      <point x="226" y="501"/>
      <point x="231" y="511" type="curve" smooth="yes"/>
      <point x="249" y="547"/>
      <point x="284" y="600"/>
      <point x="323" y="645" type="curve" smooth="yes"/>
      <point x="326" y="648"/>
      <point x="330" y="650"/>
      <point x="333" y="650" type="curve" smooth="yes"/>
      <point x="342" y="650"/>
      <point x="349" y="643"/>
      <point x="351" y="627" type="curve" smooth="yes"/>
      <point x="366" y="534"/>
      <point x="375" y="178"/>
      <point x="375" y="120" type="curve" smooth="yes"/>
      <point x="375" y="106"/>
      <point x="371" y="93"/>
      <point x="366" y="82" type="curve" smooth="yes"/>
      <point x="344" y="39"/>
      <point x="321" y="0"/>
      <point x="294" y="-34" type="curve" smooth="yes"/>
      <point x="287" y="-43"/>
      <point x="282" y="-46"/>
      <point x="272" y="-46" type="curve" smooth="yes"/>
      <point x="265" y="-46"/>
      <point x="258" y="-39"/>
      <point x="256" y="-25" type="curve" smooth="yes"/>
      <point x="242" y="169"/>
      <point x="224" y="431"/>
    </contour>
  </outline>
</glyph>
<glyph name="lamedhebrew" format="1">
  <advance width="1016"/>
  <unicode hex="05DC"/>
  <outline>
    <contour>
      <point x="249" y="123" type="curve" smooth="yes"/>
      <point x="258" y="135"/>
      <point x="263" y="147"/>
      <point x="287" y="152" type="curve" smooth="yes"/>
      <point x="414" y="185"/>
      <point x="552" y="236"/>
      <point x="638" y="323" type="curve" smooth="yes"/>
      <point x="727" y="412"/>
      <point x="751" y="563"/>
      <point x="751" y="669" type="curve" smooth="yes"/>
      <point x="751" y="720"/>
      <point x="735" y="773"/>
      <point x="724" y="788" type="curve" smooth="yes"/>
      <point x="710" y="814"/>
      <point x="692" y="821"/>
      <point x="662" y="821" type="curve"/>
      <point x="185" y="821" type="line"/>
      <point x="156" y="821"/>
      <point x="135" y="841"/>
      <point x="123" y="864" type="curve" smooth="yes"/>
      <point x="116" y="880"/>
      <point x="109" y="905"/>
      <point x="109" y="961" type="curve" smooth="yes"/>
      <point x="109" y="1018"/>
      <point x="99" y="1151"/>
      <point x="72" y="1217" type="curve" smooth="yes"/>
      <point x="68" y="1226"/>
      <point x="67" y="1231"/>
      <point x="67" y="1235" type="curve" smooth="yes"/>
      <point x="67" y="1242"/>
      <point x="72" y="1249"/>
      <point x="77" y="1258" type="curve" smooth="yes"/>
      <point x="101" y="1298"/>
      <point x="140" y="1346"/>
      <point x="163" y="1369" type="curve" smooth="yes"/>
      <point x="166" y="1373"/>
      <point x="171" y="1376"/>
      <point x="174" y="1376" type="curve" smooth="yes"/>
      <point x="179" y="1376"/>
      <point x="186" y="1371"/>
      <point x="193" y="1360" type="curve" smooth="yes"/>
      <point x="221" y="1320"/>
      <point x="235" y="1236"/>
      <point x="235" y="1170" type="curve" smooth="yes"/>
      <point x="235" y="1067"/>
      <point x="235" y="1031"/>
      <point x="249" y="1011" type="curve" smooth="yes"/>
      <point x="263" y="991"/>
      <point x="284" y="991"/>
      <point x="306" y="991" type="curve"/>
      <point x="742" y="991" type="line"/>
      <point x="865" y="991"/>
      <point x="893" y="864"/>
      <point x="893" y="773" type="curve" smooth="yes"/>
      <point x="893" y="662"/>
      <point x="855" y="552"/>
      <point x="855" y="552" type="curve" smooth="yes"/>
      <point x="819" y="424"/>
      <point x="684" y="197"/>
      <point x="583" y="122" type="curve" smooth="yes"/>
      <point x="516" y="72"/>
      <point x="389" y="14"/>
      <point x="229" y="-22" type="curve" smooth="yes"/>
      <point x="214" y="-25"/>
      <point x="199" y="-27"/>
      <point x="195" y="-27" type="curve" smooth="yes"/>
      <point x="181" y="-27"/>
      <point x="176" y="-22"/>
      <point x="176" y="-11" type="curve" smooth="yes"/>
      <point x="176" y="7"/>
      <point x="235" y="104"/>
    </contour>
  </outline>
</glyph>
<glyph name="finalnunhebrew" format="1">
  <advance width="730"/>
  <unicode hex="05DF"/>
  <outline>
    <contour>
      <point x="453" y="-395" type="curve"/>
      <point x="450" y="-31"/>
      <point x="446" y="294"/>
      <point x="426" y="577" type="curve" smooth="yes"/>
      <point x="423" y="631"/>
      <point x="417" y="679"/>
      <point x="368" y="724" type="curve" smooth="yes"/>
      <point x="298" y="787"/>
      <point x="172" y="860"/>
      <point x="104" y="893" type="curve" smooth="yes"/>
      <point x="93" y="898"/>
      <point x="82" y="905"/>
      <point x="82" y="916" type="curve" smooth="yes"/>
      <point x="82" y="921"/>
      <point x="89" y="935"/>
      <point x="97" y="944" type="curve" smooth="yes"/>
      <point x="122" y="977"/>
      <point x="171" y="1040"/>
      <point x="197" y="1072" type="curve" smooth="yes"/>
      <point x="202" y="1077"/>
      <point x="207" y="1081"/>
      <point x="212" y="1081" type="curve" smooth="yes"/>
      <point x="215" y="1081"/>
      <point x="222" y="1077"/>
      <point x="229" y="1074" type="curve" smooth="yes"/>
      <point x="289" y="1045"/>
      <point x="410" y="968"/>
      <point x="470" y="916" type="curve" smooth="yes"/>
      <point x="513" y="879"/>
      <point x="541" y="851"/>
      <point x="557" y="773" type="curve" smooth="yes"/>
      <point x="575" y="684"/>
      <point x="579" y="390"/>
      <point x="579" y="113" type="curve" smooth="yes"/>
      <point x="579" y="-14"/>
      <point x="579" y="-137"/>
      <point x="577" y="-235" type="curve" smooth="yes"/>
      <point x="577" y="-274"/>
      <point x="571" y="-287"/>
      <point x="564" y="-299" type="curve" smooth="yes"/>
      <point x="536" y="-346"/>
      <point x="511" y="-378"/>
      <point x="482" y="-407" type="curve" smooth="yes"/>
      <point x="479" y="-410"/>
      <point x="473" y="-414"/>
      <point x="470" y="-414" type="curve" smooth="yes"/>
      <point x="460" y="-414"/>
      <point x="453" y="-407"/>
    </contour>
  </outline>
</glyph>
<glyph name="nunhebrew" format="1">
  <advance width="730"/>
  <unicode hex="05E0"/>
  <outline>
    <contour>
      <point x="70" y="29" type="curve" smooth="yes"/>
      <point x="82" y="58"/>
      <point x="123" y="129"/>
      <point x="145" y="158" type="curve" smooth="yes"/>
      <point x="152" y="166"/>
      <point x="158" y="171"/>
      <point x="171" y="171" type="curve"/>
      <point x="431" y="171" type="line"/>
      <point x="452" y="171"/>
      <point x="459" y="185"/>
      <point x="460" y="222" type="curve" smooth="yes"/>
      <point x="462" y="260"/>
      <point x="464" y="298"/>
      <point x="464" y="337" type="curve" smooth="yes"/>
      <point x="464" y="407"/>
      <point x="460" y="475"/>
      <point x="453" y="543" type="curve" smooth="yes"/>
      <point x="445" y="627"/>
      <point x="421" y="694"/>
      <point x="353" y="753" type="curve" smooth="yes"/>
      <point x="306" y="794"/>
      <point x="199" y="855"/>
      <point x="109" y="905" type="curve" smooth="yes"/>
      <point x="106" y="907"/>
      <point x="93" y="914"/>
      <point x="93" y="927" type="curve" smooth="yes"/>
      <point x="93" y="932"/>
      <point x="97" y="937"/>
      <point x="101" y="942" type="curve" smooth="yes"/>
      <point x="118" y="970"/>
      <point x="176" y="1047"/>
      <point x="199" y="1072" type="curve" smooth="yes"/>
      <point x="202" y="1075"/>
      <point x="208" y="1081"/>
      <point x="214" y="1081" type="curve" smooth="yes"/>
      <point x="221" y="1081"/>
      <point x="229" y="1081"/>
      <point x="249" y="1070" type="curve" smooth="yes"/>
      <point x="294" y="1045"/>
      <point x="382" y="989"/>
      <point x="438" y="949" type="curve" smooth="yes"/>
      <point x="498" y="905"/>
      <point x="513" y="893"/>
      <point x="549" y="828" type="curve" smooth="yes"/>
      <point x="568" y="792"/>
      <point x="583" y="717"/>
      <point x="588" y="641" type="curve" smooth="yes"/>
      <point x="592" y="573"/>
      <point x="593" y="493"/>
      <point x="593" y="339" type="curve" smooth="yes"/>
      <point x="593" y="296"/>
      <point x="590" y="265"/>
      <point x="579" y="233" type="curve" smooth="yes"/>
      <point x="556" y="165"/>
      <point x="511" y="79"/>
      <point x="470" y="22" type="curve" smooth="yes"/>
      <point x="457" y="4"/>
      <point x="443" y="0"/>
      <point x="424" y="0" type="curve"/>
      <point x="89" y="0" type="line"/>
      <point x="72" y="0"/>
      <point x="67" y="9"/>
      <point x="67" y="18" type="curve" smooth="yes"/>
      <point x="67" y="22"/>
      <point x="68" y="25"/>
    </contour>
  </outline>
</glyph>
<glyph name="qofhebrew" format="1">
  <advance width="1301"/>
  <unicode hex="05E7"/>
  <outline>
    <contour>
      <point x="228" y="778" type="curve" smooth="yes"/>
      <point x="222" y="816"/>
      <point x="151" y="817"/>
      <point x="133" y="821" type="curve" smooth="yes"/>
      <point x="120" y="824"/>
      <point x="116" y="831"/>
      <point x="116" y="838" type="curve" smooth="yes"/>
      <point x="116" y="846"/>
      <point x="118" y="851"/>
      <point x="123" y="860" type="curve" smooth="yes"/>
      <point x="178" y="949"/>
      <point x="258" y="1038"/>
      <point x="289" y="1068" type="curve" smooth="yes"/>
      <point x="296" y="1075"/>
      <point x="305" y="1081"/>
      <point x="315" y="1081" type="curve" smooth="yes"/>
      <point x="328" y="1081"/>
      <point x="339" y="1072"/>
      <point x="342" y="1057" type="curve" smooth="yes"/>
      <point x="353" y="1023"/>
      <point x="351" y="991"/>
      <point x="402" y="991" type="curve"/>
      <point x="1018" y="991" type="line"/>
      <point x="1131" y="991"/>
      <point x="1183" y="898"/>
      <point x="1183" y="803" type="curve" smooth="yes"/>
      <point x="1183" y="670"/>
      <point x="1136" y="530"/>
      <point x="1096" y="439" type="curve" smooth="yes"/>
      <point x="1033" y="292"/>
      <point x="942" y="156"/>
      <point x="805" y="74" type="curve" smooth="yes"/>
      <point x="747" y="39"/>
      <point x="600" y="-31"/>
      <point x="564" y="-31" type="curve" smooth="yes"/>
      <point x="547" y="-31"/>
      <point x="541" y="-24"/>
      <point x="541" y="-11" type="curve" smooth="yes"/>
      <point x="541" y="7"/>
      <point x="602" y="115"/>
      <point x="614" y="137" type="curve" smooth="yes"/>
      <point x="626" y="154"/>
      <point x="631" y="163"/>
      <point x="650" y="169" type="curve" smooth="yes"/>
      <point x="795" y="212"/>
      <point x="935" y="256"/>
      <point x="991" y="410" type="curve" smooth="yes"/>
      <point x="1007" y="453"/>
      <point x="1034" y="573"/>
      <point x="1034" y="667" type="curve" smooth="yes"/>
      <point x="1034" y="742"/>
      <point x="1018" y="821"/>
      <point x="932" y="821" type="curve" smooth="yes"/>
      <point x="414" y="821" type="line"/>
      <point x="402" y="821"/>
      <point x="387" y="807"/>
      <point x="387" y="792" type="curve" smooth="yes"/>
      <point x="395" y="627"/>
      <point x="395" y="443"/>
      <point x="395" y="346" type="curve" smooth="yes"/>
      <point x="395" y="253"/>
      <point x="396" y="199"/>
      <point x="396" y="91" type="curve" smooth="yes"/>
      <point x="396" y="-41"/>
      <point x="396" y="-183"/>
      <point x="393" y="-238" type="curve" smooth="yes"/>
      <point x="393" y="-242"/>
      <point x="390" y="-260"/>
      <point x="382" y="-279" type="curve" smooth="yes"/>
      <point x="364" y="-321"/>
      <point x="326" y="-376"/>
      <point x="303" y="-402" type="curve" smooth="yes"/>
      <point x="298" y="-409"/>
      <point x="292" y="-410"/>
      <point x="287" y="-410" type="curve" smooth="yes"/>
      <point x="277" y="-410"/>
      <point x="270" y="-400"/>
      <point x="270" y="-393" type="curve" smooth="yes"/>
      <point x="263" y="-18"/>
      <point x="272" y="409"/>
    </contour>
  </outline>
</glyph>
<glyph name="shinhebrew" format="1">
  <advance width="1301"/>
  <unicode hex="05E9"/>
  <outline>
    <contour>
      <point x="298" y="284" type="curve" smooth="yes"/>
      <point x="253" y="513"/>
      <point x="208" y="739"/>
      <point x="104" y="914" type="curve" smooth="yes"/>
      <point x="101" y="920"/>
      <point x="99" y="925"/>
      <point x="99" y="928" type="curve" smooth="yes"/>
      <point x="99" y="934"/>
      <point x="101" y="937"/>
      <point x="104" y="944" type="curve" smooth="yes"/>
      <point x="120" y="971"/>
      <point x="169" y="1040"/>
      <point x="197" y="1068" type="curve" smooth="yes"/>
      <point x="207" y="1077"/>
      <point x="212" y="1081"/>
      <point x="219" y="1081" type="curve" smooth="yes"/>
      <point x="231" y="1081"/>
      <point x="238" y="1068"/>
      <point x="242" y="1061" type="curve" smooth="yes"/>
      <point x="287" y="966"/>
      <point x="342" y="769"/>
      <point x="359" y="697" type="curve"/>
      <point x="405" y="473" type="line"/>
      <point x="407" y="466"/>
      <point x="414" y="460"/>
      <point x="423" y="460" type="curve" smooth="yes"/>
      <point x="455" y="460"/>
      <point x="595" y="536"/>
      <point x="595" y="667" type="curve" smooth="yes"/>
      <point x="595" y="763"/>
      <point x="592" y="795"/>
      <point x="557" y="874" type="curve" smooth="yes"/>
      <point x="554" y="886"/>
      <point x="550" y="893"/>
      <point x="550" y="900" type="curve" smooth="yes"/>
      <point x="550" y="907"/>
      <point x="552" y="914"/>
      <point x="559" y="925" type="curve" smooth="yes"/>
      <point x="593" y="977"/>
      <point x="658" y="1048"/>
      <point x="677" y="1070" type="curve" smooth="yes"/>
      <point x="684" y="1077"/>
      <point x="690" y="1081"/>
      <point x="696" y="1081" type="curve" smooth="yes"/>
      <point x="706" y="1081"/>
      <point x="711" y="1068"/>
      <point x="715" y="1057" type="curve" smooth="yes"/>
      <point x="730" y="1012"/>
      <point x="751" y="908"/>
      <point x="751" y="831" type="curve" smooth="yes"/>
      <point x="751" y="692"/>
      <point x="711" y="588"/>
      <point x="641" y="508" type="curve" smooth="yes"/>
      <point x="581" y="438"/>
      <point x="516" y="393"/>
      <point x="450" y="353" type="curve" smooth="yes"/>
      <point x="438" y="346"/>
      <point x="434" y="337"/>
      <point x="434" y="328" type="curve" smooth="yes"/>
      <point x="434" y="323"/>
      <point x="436" y="313"/>
      <point x="438" y="306" type="curve" smooth="yes"/>
      <point x="448" y="262"/>
      <point x="462" y="200"/>
      <point x="477" y="181" type="curve" smooth="yes"/>
      <point x="494" y="156"/>
      <point x="518" y="137"/>
      <point x="559" y="137" type="curve" smooth="yes"/>
      <point x="648" y="137"/>
      <point x="803" y="195"/>
      <point x="882" y="263" type="curve" smooth="yes"/>
      <point x="970" y="340"/>
      <point x="1021" y="417"/>
      <point x="1021" y="563" type="curve" smooth="yes"/>
      <point x="1021" y="674"/>
      <point x="1004" y="785"/>
      <point x="971" y="869" type="curve" smooth="yes"/>
      <point x="966" y="886"/>
      <point x="961" y="900"/>
      <point x="961" y="912" type="curve" smooth="yes"/>
      <point x="961" y="927"/>
      <point x="968" y="937"/>
      <point x="978" y="951" type="curve" smooth="yes"/>
      <point x="998" y="978"/>
      <point x="1043" y="1029"/>
      <point x="1082" y="1070" type="curve" smooth="yes"/>
      <point x="1088" y="1075"/>
      <point x="1096" y="1081"/>
      <point x="1103" y="1081" type="curve" smooth="yes"/>
      <point x="1110" y="1081"/>
      <point x="1117" y="1072"/>
      <point x="1118" y="1065" type="curve" smooth="yes"/>
      <point x="1158" y="949"/>
      <point x="1173" y="841"/>
      <point x="1173" y="735" type="curve" smooth="yes"/>
      <point x="1173" y="570"/>
      <point x="1098" y="380"/>
      <point x="1021" y="270" type="curve" smooth="yes"/>
      <point x="901" y="95"/>
      <point x="711" y="-31"/>
      <point x="503" y="-31" type="curve" smooth="yes"/>
      <point x="361" y="-31"/>
      <point x="330" y="116"/>
    </contour>
  </outline>
</glyph>
<glyph name="uni05F4" format="1">
  <advance width="732"/>
  <unicode hex="05F4"/>
  <outline>
    <contour>
      <point x="306" y="1180" type="curve" smooth="yes"/>
      <point x="310" y="1183"/>
      <point x="315" y="1187"/>
      <point x="325" y="1187" type="curve" smooth="yes"/>
      <point x="361" y="1187" type="line" smooth="yes"/>
      <point x="383" y="1187"/>
      <point x="385" y="1145"/>
      <point x="385" y="1120" type="curve" smooth="yes"/>
      <point x="385" y="1077"/>
      <point x="355" y="1029"/>
      <point x="339" y="1004" type="curve" smooth="yes"/>
      <point x="312" y="963"/>
      <point x="113" y="799"/>
      <point x="75" y="799" type="curve" smooth="yes"/>
      <point x="61" y="799"/>
      <point x="53" y="812"/>
      <point x="53" y="824" type="curve" smooth="yes"/>
      <point x="53" y="830"/>
      <point x="58" y="835"/>
      <point x="60" y="838" type="curve" smooth="yes"/>
      <point x="102" y="907"/>
      <point x="242" y="1113"/>
    </contour>
    <contour>
      <point x="581" y="1180" type="curve" smooth="yes"/>
      <point x="585" y="1183"/>
      <point x="592" y="1187"/>
      <point x="600" y="1187" type="curve" smooth="yes"/>
      <point x="634" y="1187" type="line" smooth="yes"/>
      <point x="658" y="1187"/>
      <point x="660" y="1145"/>
      <point x="660" y="1120" type="curve" smooth="yes"/>
      <point x="660" y="1077"/>
      <point x="631" y="1031"/>
      <point x="614" y="1005" type="curve" smooth="yes"/>
      <point x="588" y="964"/>
      <point x="389" y="799"/>
      <point x="351" y="799" type="curve" smooth="yes"/>
      <point x="339" y="799"/>
      <point x="330" y="814"/>
      <point x="330" y="826" type="curve" smooth="yes"/>
      <point x="330" y="831"/>
      <point x="332" y="835"/>
      <point x="333" y="838" type="curve" smooth="yes"/>
      <point x="376" y="907"/>
      <point x="516" y="1113"/>
    </contour>
  </outline>
</glyph>
<glyph name="endash" format="1">
  <advance width="971"/>
  <unicode hex="2013"/>
  <outline>
    <contour>
      <point x="204" y="547" type="curve" smooth="yes"/>
      <point x="221" y="561"/>
      <point x="233" y="561"/>
      <point x="246" y="561" type="curve" smooth="yes"/>
      <point x="810" y="561" type="line" smooth="yes"/>
      <point x="830" y="561"/>
      <point x="837" y="554"/>
      <point x="837" y="543" type="curve" smooth="yes"/>
      <point x="837" y="536"/>
      <point x="831" y="525"/>
      <point x="826" y="518" type="curve" smooth="yes"/>
      <point x="799" y="477"/>
      <point x="801" y="477"/>
      <point x="773" y="445" type="curve" smooth="yes"/>
      <point x="760" y="431"/>
      <point x="747" y="431"/>
      <point x="727" y="431" type="curve" smooth="yes"/>
      <point x="161" y="431" type="line" smooth="yes"/>
      <point x="142" y="431"/>
      <point x="135" y="438"/>
      <point x="135" y="446" type="curve" smooth="yes"/>
      <point x="135" y="452"/>
      <point x="137" y="457"/>
      <point x="138" y="460" type="curve" smooth="yes"/>
      <point x="166" y="508"/>
      <point x="185" y="527"/>
    </contour>
  </outline>
</glyph>
<glyph name="dagger" format="1">
  <advance width="1034"/>
  <unicode hex="2020"/>
  <outline>
    <contour>
      <point x="550" y="262" type="curve"/>
      <point x="554" y="506"/>
      <point x="708" y="742"/>
      <point x="914" y="744" type="curve" smooth="yes"/>
      <point x="923" y="744"/>
      <point x="927" y="749"/>
      <point x="927" y="756" type="curve" smooth="yes"/>
      <point x="927" y="761"/>
      <point x="923" y="771"/>
      <point x="920" y="778" type="curve" smooth="yes"/>
      <point x="862" y="889" type="line" smooth="yes"/>
      <point x="857" y="900"/>
      <point x="853" y="903"/>
      <point x="835" y="903" type="curve" smooth="yes"/>
      <point x="773" y="903"/>
      <point x="622" y="740"/>
      <point x="566" y="566" type="curve" smooth="yes"/>
      <point x="561" y="550"/>
      <point x="557" y="541"/>
      <point x="554" y="541" type="curve" smooth="yes"/>
      <point x="550" y="541"/>
      <point x="547" y="552"/>
      <point x="547" y="579" type="curve" smooth="yes"/>
      <point x="547" y="672"/>
      <point x="592" y="1029"/>
      <point x="592" y="1192" type="curve" smooth="yes"/>
      <point x="592" y="1213"/>
      <point x="588" y="1226"/>
      <point x="577" y="1226" type="curve" smooth="yes"/>
      <point x="570" y="1226"/>
      <point x="557" y="1219"/>
      <point x="541" y="1208" type="curve" smooth="yes"/>
      <point x="509" y="1187"/>
      <point x="470" y="1158"/>
      <point x="434" y="1131" type="curve" smooth="yes"/>
      <point x="426" y="1125"/>
      <point x="424" y="1118"/>
      <point x="424" y="1108" type="curve" smooth="yes"/>
      <point x="424" y="1023"/>
      <point x="486" y="672"/>
      <point x="486" y="579" type="curve" smooth="yes"/>
      <point x="486" y="552"/>
      <point x="484" y="539"/>
      <point x="480" y="539" type="curve" smooth="yes"/>
      <point x="477" y="539"/>
      <point x="472" y="550"/>
      <point x="464" y="566" type="curve" smooth="yes"/>
      <point x="385" y="761"/>
      <point x="260" y="903"/>
      <point x="197" y="903" type="curve" smooth="yes"/>
      <point x="179" y="903"/>
      <point x="176" y="900"/>
      <point x="172" y="893" type="curve" smooth="yes"/>
      <point x="115" y="780" type="line" smooth="yes"/>
      <point x="109" y="769"/>
      <point x="106" y="763"/>
      <point x="106" y="758" type="curve" smooth="yes"/>
      <point x="106" y="751"/>
      <point x="109" y="744"/>
      <point x="118" y="744" type="curve" smooth="yes"/>
      <point x="310" y="744"/>
      <point x="482" y="498"/>
      <point x="482" y="260" type="curve" smooth="yes"/>
      <point x="482" y="133"/>
      <point x="446" y="-32"/>
      <point x="446" y="-46" type="curve" smooth="yes"/>
      <point x="446" y="-55"/>
      <point x="448" y="-68"/>
      <point x="450" y="-75" type="curve" smooth="yes"/>
      <point x="457" y="-111"/>
      <point x="487" y="-258"/>
      <point x="496" y="-292" type="curve" smooth="yes"/>
      <point x="500" y="-306"/>
      <point x="508" y="-312"/>
      <point x="516" y="-312" type="curve" smooth="yes"/>
      <point x="525" y="-312"/>
      <point x="534" y="-306"/>
      <point x="537" y="-292" type="curve" smooth="yes"/>
      <point x="583" y="-77" type="line" smooth="yes"/>
      <point x="585" y="-65"/>
      <point x="585" y="-63"/>
      <point x="585" y="-50" type="curve" smooth="yes"/>
      <point x="585" y="-34"/>
      <point x="550" y="135"/>
    </contour>
  </outline>
</glyph>
<glyph name="guilsinglleft" format="1">
  <advance width="414"/>
  <unicode hex="2039"/>
  <outline>
    <contour>
      <point x="174" y="643" type="curve" smooth="yes"/>
      <point x="145" y="607"/>
      <point x="101" y="543"/>
      <point x="79" y="498" type="curve" smooth="yes"/>
      <point x="75" y="491"/>
      <point x="72" y="480"/>
      <point x="72" y="472" type="curve" smooth="yes"/>
      <point x="72" y="460"/>
      <point x="75" y="450"/>
      <point x="88" y="431" type="curve" smooth="yes"/>
      <point x="115" y="385"/>
      <point x="176" y="317"/>
      <point x="224" y="276" type="curve" smooth="yes"/>
      <point x="233" y="269"/>
      <point x="238" y="267"/>
      <point x="242" y="267" type="curve" smooth="yes"/>
      <point x="248" y="267"/>
      <point x="255" y="270"/>
      <point x="260" y="276" type="curve" smooth="yes"/>
      <point x="291" y="310"/>
      <point x="313" y="347"/>
      <point x="326" y="369" type="curve"/>
      <point x="326" y="369"/>
      <point x="337" y="389"/>
      <point x="337" y="398" type="curve" smooth="yes"/>
      <point x="337" y="403"/>
      <point x="335" y="412"/>
      <point x="330" y="417" type="curve" smooth="yes"/>
      <point x="249" y="500" type="line" smooth="yes"/>
      <point x="244" y="506"/>
      <point x="240" y="516"/>
      <point x="240" y="522" type="curve" smooth="yes"/>
      <point x="240" y="527"/>
      <point x="240" y="534"/>
      <point x="246" y="543" type="curve" smooth="yes"/>
      <point x="267" y="586"/>
      <point x="296" y="638"/>
      <point x="317" y="683" type="curve" smooth="yes"/>
      <point x="321" y="690"/>
      <point x="321" y="697"/>
      <point x="321" y="703" type="curve" smooth="yes"/>
      <point x="321" y="710"/>
      <point x="315" y="715"/>
      <point x="306" y="715" type="curve" smooth="yes"/>
      <point x="303" y="715"/>
      <point x="298" y="715"/>
      <point x="291" y="711" type="curve" smooth="yes"/>
      <point x="276" y="706"/>
      <point x="228" y="683"/>
      <point x="219" y="677" type="curve" smooth="yes"/>
      <point x="207" y="670"/>
      <point x="190" y="665"/>
    </contour>
  </outline>
</glyph>
<glyph name="Euro" format="1">
  <advance width="1018"/>
  <unicode hex="20AC"/>
  <outline>
    <contour>
      <point x="652" y="-29" type="curve" smooth="yes"/>
      <point x="701" y="-29"/>
      <point x="778" y="-18"/>
      <point x="823" y="5" type="curve" smooth="yes"/>
      <point x="867" y="29"/>
      <point x="930" y="88"/>
      <point x="977" y="138" type="curve" smooth="yes"/>
      <point x="982" y="145"/>
      <point x="991" y="159"/>
      <point x="991" y="169" type="curve" smooth="yes"/>
      <point x="991" y="176"/>
      <point x="985" y="181"/>
      <point x="978" y="181" type="curve" smooth="yes"/>
      <point x="966" y="181"/>
      <point x="835" y="127"/>
      <point x="742" y="127" type="curve" smooth="yes"/>
      <point x="480" y="127"/>
      <point x="315" y="260"/>
      <point x="315" y="541" type="curve"/>
      <point x="315" y="541"/>
      <point x="595" y="541"/>
      <point x="763" y="545" type="curve" smooth="yes"/>
      <point x="788" y="545"/>
      <point x="846" y="554"/>
      <point x="865" y="563" type="curve" smooth="yes"/>
      <point x="894" y="575"/>
      <point x="918" y="590"/>
      <point x="934" y="600" type="curve" smooth="yes"/>
      <point x="944" y="607"/>
      <point x="959" y="619"/>
      <point x="959" y="624" type="curve" smooth="yes"/>
      <point x="959" y="631"/>
      <point x="954" y="636"/>
      <point x="941" y="636" type="curve" smooth="yes"/>
      <point x="312" y="636" type="line"/>
      <point x="312" y="681"/>
      <point x="313" y="703"/>
      <point x="315" y="722" type="curve" smooth="yes"/>
      <point x="317" y="732"/>
      <point x="323" y="735"/>
      <point x="326" y="735" type="curve" smooth="yes"/>
      <point x="403" y="735"/>
      <point x="667" y="737"/>
      <point x="783" y="740" type="curve" smooth="yes"/>
      <point x="835" y="742"/>
      <point x="843" y="746"/>
      <point x="880" y="761" type="curve" smooth="yes"/>
      <point x="896" y="769"/>
      <point x="925" y="783"/>
      <point x="944" y="795" type="curve" smooth="yes"/>
      <point x="949" y="799"/>
      <point x="968" y="814"/>
      <point x="968" y="819" type="curve" smooth="yes"/>
      <point x="968" y="826"/>
      <point x="963" y="831"/>
      <point x="949" y="831" type="curve" smooth="yes"/>
      <point x="333" y="831" type="line"/>
      <point x="328" y="831"/>
      <point x="328" y="835"/>
      <point x="328" y="838" type="curve" smooth="yes"/>
      <point x="328" y="864"/>
      <point x="359" y="982"/>
      <point x="403" y="1036" type="curve" smooth="yes"/>
      <point x="443" y="1082"/>
      <point x="506" y="1136"/>
      <point x="592" y="1136" type="curve" smooth="yes"/>
      <point x="684" y="1136"/>
      <point x="773" y="1089"/>
      <point x="824" y="1062" type="curve" smooth="yes"/>
      <point x="831" y="1059"/>
      <point x="846" y="1054"/>
      <point x="857" y="1054" type="curve" smooth="yes"/>
      <point x="867" y="1054"/>
      <point x="882" y="1070"/>
      <point x="889" y="1079" type="curve" smooth="yes"/>
      <point x="912" y="1110"/>
      <point x="930" y="1132"/>
      <point x="954" y="1172" type="curve" smooth="yes"/>
      <point x="961" y="1185"/>
      <point x="968" y="1195"/>
      <point x="968" y="1204" type="curve" smooth="yes"/>
      <point x="968" y="1213"/>
      <point x="961" y="1221"/>
      <point x="946" y="1226" type="curve" smooth="yes"/>
      <point x="879" y="1247"/>
      <point x="812" y="1265"/>
      <point x="742" y="1265" type="curve" smooth="yes"/>
      <point x="715" y="1265"/>
      <point x="638" y="1262"/>
      <point x="586" y="1242" type="curve" smooth="yes"/>
      <point x="509" y="1213"/>
      <point x="396" y="1145"/>
      <point x="315" y="1089" type="curve" smooth="yes"/>
      <point x="276" y="1062"/>
      <point x="249" y="1029"/>
      <point x="221" y="985" type="curve" smooth="yes"/>
      <point x="192" y="939"/>
      <point x="174" y="889"/>
      <point x="156" y="835" type="curve" smooth="yes"/>
      <point x="154" y="831"/>
      <point x="151" y="831"/>
      <point x="151" y="831" type="curve"/>
      <point x="151" y="831"/>
      <point x="147" y="831"/>
      <point x="133" y="831" type="curve" smooth="yes"/>
      <point x="108" y="831"/>
      <point x="86" y="830"/>
      <point x="67" y="817" type="curve"/>
      <point x="-4" y="771" type="line"/>
      <point x="-16" y="761"/>
      <point x="-24" y="753"/>
      <point x="-24" y="747" type="curve" smooth="yes"/>
      <point x="-24" y="740"/>
      <point x="-20" y="735"/>
      <point x="-7" y="735" type="curve" smooth="yes"/>
      <point x="137" y="735" type="line"/>
      <point x="129" y="699"/>
      <point x="129" y="669"/>
      <point x="127" y="636" type="curve"/>
      <point x="111" y="636" type="line" smooth="yes"/>
      <point x="91" y="636"/>
      <point x="65" y="631"/>
      <point x="46" y="617" type="curve"/>
      <point x="-2" y="583" type="line" smooth="yes"/>
      <point x="-14" y="571"/>
      <point x="-24" y="561"/>
      <point x="-24" y="554" type="curve" smooth="yes"/>
      <point x="-24" y="547"/>
      <point x="-20" y="541"/>
      <point x="-7" y="541" type="curve" smooth="yes"/>
      <point x="129" y="541" type="line"/>
      <point x="149" y="217"/>
      <point x="321" y="-29"/>
    </contour>
  </outline>
</glyph>
<glyph name="uniFB1E" format="1">
  <advance width="0"/>
  <unicode hex="FB1E"/>
  <outline>
    <contour>
      <point x="270" y="1341" type="curve" smooth="yes"/>
      <point x="179" y="1341"/>
      <point x="171" y="1414"/>
      <point x="171" y="1479" type="curve" smooth="yes"/>
      <point x="171" y="1500"/>
      <point x="161" y="1505"/>
      <point x="145" y="1505" type="curve" smooth="yes"/>
      <point x="99" y="1505" type="line" smooth="yes"/>
      <point x="82" y="1505"/>
      <point x="70" y="1500"/>
      <point x="70" y="1482" type="curve" smooth="yes"/>
      <point x="74" y="1339"/>
      <point x="127" y="1249"/>
      <point x="270" y="1249" type="curve" smooth="yes"/>
      <point x="417" y="1249"/>
      <point x="470" y="1346"/>
      <point x="472" y="1482" type="curve" smooth="yes"/>
      <point x="472" y="1500"/>
      <point x="459" y="1505"/>
      <point x="443" y="1505" type="curve" smooth="yes"/>
      <point x="396" y="1505" type="line" smooth="yes"/>
      <point x="380" y="1505"/>
      <point x="371" y="1500"/>
      <point x="371" y="1479" type="curve" smooth="yes"/>
      <point x="371" y="1414"/>
      <point x="362" y="1341"/>
    </contour>
  </outline>
</glyph>
<glyph name="ampersant.salt" format="1">
  <advance width="1348"/>
  <outline>
    <contour>
      <point x="1075" y="1072" type="curve" smooth="yes"/>
      <point x="1036" y="1033"/>
      <point x="1019" y="1005"/>
      <point x="998" y="968" type="curve" smooth="yes"/>
      <point x="991" y="956"/>
      <point x="989" y="951"/>
      <point x="989" y="942" type="curve" smooth="yes"/>
      <point x="989" y="928"/>
      <point x="997" y="916"/>
      <point x="1004" y="901" type="curve" smooth="yes"/>
      <point x="1016" y="879"/>
      <point x="1050" y="795"/>
      <point x="1050" y="754" type="curve" smooth="yes"/>
      <point x="1050" y="732"/>
      <point x="1048" y="720"/>
      <point x="1041" y="720" type="curve" smooth="yes"/>
      <point x="1036" y="720"/>
      <point x="1031" y="724"/>
      <point x="1011" y="742" type="curve" smooth="yes"/>
      <point x="821" y="916"/>
      <point x="373" y="1075"/>
      <point x="233" y="1075" type="curve" smooth="yes"/>
      <point x="224" y="1075"/>
      <point x="221" y="1070"/>
      <point x="214" y="1062" type="curve" smooth="yes"/>
      <point x="181" y="1031"/>
      <point x="144" y="984"/>
      <point x="108" y="937" type="curve" smooth="yes"/>
      <point x="101" y="928"/>
      <point x="99" y="925"/>
      <point x="99" y="918" type="curve" smooth="yes"/>
      <point x="99" y="910"/>
      <point x="108" y="907"/>
      <point x="116" y="907" type="curve" smooth="yes"/>
      <point x="152" y="907"/>
      <point x="236" y="889"/>
      <point x="292" y="874" type="curve"/>
      <point x="337" y="767"/>
      <point x="403" y="557"/>
      <point x="403" y="501" type="curve" smooth="yes"/>
      <point x="403" y="484"/>
      <point x="395" y="477"/>
      <point x="376" y="466" type="curve" smooth="yes"/>
      <point x="326" y="441"/>
      <point x="221" y="402"/>
      <point x="212" y="400" type="curve" smooth="yes"/>
      <point x="199" y="396"/>
      <point x="193" y="389"/>
      <point x="192" y="382" type="curve" smooth="yes"/>
      <point x="188" y="366"/>
      <point x="172" y="319"/>
      <point x="151" y="270" type="curve" smooth="yes"/>
      <point x="138" y="244"/>
      <point x="86" y="176"/>
      <point x="86" y="97" type="curve" smooth="yes"/>
      <point x="86" y="-61"/>
      <point x="369" y="-74"/>
      <point x="486" y="-74" type="curve" smooth="yes"/>
      <point x="760" y="-74"/>
      <point x="966" y="-11"/>
      <point x="1106" y="32" type="curve" smooth="yes"/>
      <point x="1127" y="39"/>
      <point x="1170" y="58"/>
      <point x="1185" y="84" type="curve" smooth="yes"/>
      <point x="1199" y="111"/>
      <point x="1229" y="179"/>
      <point x="1229" y="190" type="curve" smooth="yes"/>
      <point x="1229" y="195"/>
      <point x="1224" y="199"/>
      <point x="1217" y="199" type="curve" smooth="yes"/>
      <point x="1208" y="199"/>
      <point x="864" y="72"/>
      <point x="482" y="72" type="curve" smooth="yes"/>
      <point x="378" y="72"/>
      <point x="158" y="93"/>
      <point x="158" y="214" type="curve" smooth="yes"/>
      <point x="158" y="229"/>
      <point x="183" y="248"/>
      <point x="195" y="251" type="curve" smooth="yes"/>
      <point x="258" y="270"/>
      <point x="335" y="303"/>
      <point x="371" y="319" type="curve" smooth="yes"/>
      <point x="407" y="337"/>
      <point x="441" y="361"/>
      <point x="452" y="390" type="curve" smooth="yes"/>
      <point x="460" y="421"/>
      <point x="486" y="515"/>
      <point x="489" y="539" type="curve" smooth="yes"/>
      <point x="491" y="557"/>
      <point x="493" y="581"/>
      <point x="493" y="604" type="curve" smooth="yes"/>
      <point x="493" y="672"/>
      <point x="470" y="754"/>
      <point x="441" y="846" type="curve"/>
      <point x="498" y="833"/>
      <point x="571" y="810"/>
      <point x="622" y="774" type="curve"/>
      <point x="697" y="633"/>
      <point x="717" y="428"/>
      <point x="746" y="279" type="curve" smooth="yes"/>
      <point x="746" y="279"/>
      <point x="749" y="269"/>
      <point x="758" y="269" type="curve" smooth="yes"/>
      <point x="765" y="269"/>
      <point x="771" y="282"/>
      <point x="776" y="294" type="curve" smooth="yes"/>
      <point x="795" y="340"/>
      <point x="803" y="383"/>
      <point x="812" y="457" type="curve" smooth="yes"/>
      <point x="814" y="475"/>
      <point x="816" y="494"/>
      <point x="816" y="508" type="curve" smooth="yes"/>
      <point x="816" y="520"/>
      <point x="814" y="545"/>
      <point x="810" y="563" type="curve" smooth="yes"/>
      <point x="803" y="613"/>
      <point x="780" y="692"/>
      <point x="780" y="696" type="curve" smooth="yes"/>
      <point x="780" y="699"/>
      <point x="781" y="701"/>
      <point x="785" y="701" type="curve" smooth="yes"/>
      <point x="787" y="701"/>
      <point x="790" y="701"/>
      <point x="794" y="699" type="curve" smooth="yes"/>
      <point x="942" y="614"/>
      <point x="1086" y="489"/>
      <point x="1172" y="319" type="curve" smooth="yes"/>
      <point x="1178" y="308"/>
      <point x="1181" y="299"/>
      <point x="1187" y="299" type="curve" smooth="yes"/>
      <point x="1192" y="299"/>
      <point x="1194" y="305"/>
      <point x="1195" y="310" type="curve" smooth="yes"/>
      <point x="1204" y="344"/>
      <point x="1222" y="434"/>
      <point x="1224" y="466" type="curve" smooth="yes"/>
      <point x="1224" y="470"/>
      <point x="1224" y="475"/>
      <point x="1219" y="486" type="curve" smooth="yes"/>
      <point x="1188" y="547"/>
      <point x="1147" y="597"/>
      <point x="1115" y="634" type="curve" smooth="yes"/>
      <point x="1104" y="647"/>
      <point x="1103" y="650"/>
      <point x="1103" y="655" type="curve" smooth="yes"/>
      <point x="1103" y="660"/>
      <point x="1106" y="667"/>
      <point x="1108" y="672" type="curve" smooth="yes"/>
      <point x="1125" y="715"/>
      <point x="1165" y="809"/>
      <point x="1165" y="889" type="curve" smooth="yes"/>
      <point x="1165" y="978"/>
      <point x="1129" y="1047"/>
      <point x="1111" y="1070" type="curve" smooth="yes"/>
      <point x="1104" y="1079"/>
      <point x="1100" y="1082"/>
      <point x="1093" y="1082" type="curve" smooth="yes"/>
      <point x="1088" y="1082"/>
      <point x="1079" y="1075"/>
    </contour>
  </outline>
</glyph>
<glyph name="one.001" format="1">
  <advance width="896"/>
  <outline>
    <contour>
      <point x="89" y="25" type="curve" smooth="yes"/>
      <point x="113" y="67"/>
      <point x="147" y="118"/>
      <point x="169" y="149" type="curve" smooth="yes"/>
      <point x="176" y="161"/>
      <point x="185" y="169"/>
      <point x="212" y="169" type="curve" smooth="yes"/>
      <point x="333" y="169" type="line" smooth="yes"/>
      <point x="364" y="169"/>
      <point x="389" y="192"/>
      <point x="389" y="235" type="curve" smooth="yes"/>
      <point x="389" y="267"/>
      <point x="390" y="301"/>
      <point x="390" y="339" type="curve" smooth="yes"/>
      <point x="390" y="486"/>
      <point x="389" y="611"/>
      <point x="376" y="735" type="curve" smooth="yes"/>
      <point x="369" y="809"/>
      <point x="346" y="851"/>
      <point x="287" y="851" type="curve" smooth="yes"/>
      <point x="222" y="851" type="line"/>
      <point x="208" y="851"/>
      <point x="179" y="853"/>
      <point x="179" y="874" type="curve" smooth="yes"/>
      <point x="179" y="880"/>
      <point x="181" y="887"/>
      <point x="190" y="896" type="curve" smooth="yes"/>
      <point x="244" y="946"/>
      <point x="376" y="1031"/>
      <point x="462" y="1075" type="curve" smooth="yes"/>
      <point x="470" y="1079"/>
      <point x="477" y="1081"/>
      <point x="486" y="1081" type="curve" smooth="yes"/>
      <point x="503" y="1081"/>
      <point x="516" y="1072"/>
      <point x="520" y="1048" type="curve" smooth="yes"/>
      <point x="530" y="964"/>
      <point x="536" y="763"/>
      <point x="536" y="758" type="curve" smooth="yes"/>
      <point x="536" y="692"/>
      <point x="545" y="291"/>
      <point x="545" y="219" type="curve" smooth="yes"/>
      <point x="545" y="186"/>
      <point x="554" y="169"/>
      <point x="590" y="169" type="curve" smooth="yes"/>
      <point x="788" y="169" type="line"/>
      <point x="795" y="169"/>
      <point x="805" y="161"/>
      <point x="805" y="152" type="curve" smooth="yes"/>
      <point x="805" y="147"/>
      <point x="803" y="144"/>
      <point x="799" y="138" type="curve" smooth="yes"/>
      <point x="778" y="102"/>
      <point x="733" y="58"/>
      <point x="703" y="18" type="curve" smooth="yes"/>
      <point x="684" y="0"/>
      <point x="677" y="0"/>
      <point x="656" y="0" type="curve" smooth="yes"/>
      <point x="120" y="0" type="line"/>
      <point x="104" y="0"/>
      <point x="86" y="0"/>
      <point x="86" y="11" type="curve" smooth="yes"/>
      <point x="86" y="14"/>
      <point x="88" y="18"/>
    </contour>
  </outline>
</glyph>
<glyph name="zero.001" format="1">
  <advance width="896"/>
  <outline>
    <contour>
      <point x="81" y="503" type="curve" smooth="yes"/>
      <point x="81" y="619"/>
      <point x="108" y="795"/>
      <point x="185" y="898" type="curve" smooth="yes"/>
      <point x="251" y="984"/>
      <point x="347" y="1067"/>
      <point x="457" y="1067" type="curve" smooth="yes"/>
      <point x="571" y="1067"/>
      <point x="684" y="1005"/>
      <point x="740" y="921" type="curve" smooth="yes"/>
      <point x="816" y="805"/>
      <point x="833" y="650"/>
      <point x="833" y="518" type="curve" smooth="yes"/>
      <point x="833" y="438"/>
      <point x="821" y="359"/>
      <point x="805" y="306" type="curve" smooth="yes"/>
      <point x="785" y="244"/>
      <point x="744" y="151"/>
      <point x="650" y="61" type="curve" smooth="yes"/>
      <point x="607" y="18"/>
      <point x="520" y="-29"/>
      <point x="431" y="-29" type="curve" smooth="yes"/>
      <point x="335" y="-29"/>
      <point x="236" y="4"/>
      <point x="172" y="109" type="curve" smooth="yes"/>
      <point x="116" y="199"/>
      <point x="81" y="359"/>
    </contour>
    <contour>
      <point x="489" y="135" type="curve" smooth="yes"/>
      <point x="516" y="135"/>
      <point x="579" y="138"/>
      <point x="619" y="179" type="curve" smooth="yes"/>
      <point x="643" y="208"/>
      <point x="665" y="246"/>
      <point x="676" y="315" type="curve" smooth="yes"/>
      <point x="684" y="378"/>
      <point x="686" y="428"/>
      <point x="686" y="511" type="curve" smooth="yes"/>
      <point x="686" y="609"/>
      <point x="669" y="724"/>
      <point x="619" y="801" type="curve" smooth="yes"/>
      <point x="571" y="872"/>
      <point x="500" y="898"/>
      <point x="426" y="898" type="curve" smooth="yes"/>
      <point x="359" y="898"/>
      <point x="296" y="867"/>
      <point x="270" y="816" type="curve" smooth="yes"/>
      <point x="233" y="739"/>
      <point x="222" y="640"/>
      <point x="222" y="541" type="curve" smooth="yes"/>
      <point x="222" y="432"/>
      <point x="249" y="312"/>
      <point x="277" y="251" type="curve" smooth="yes"/>
      <point x="317" y="165"/>
      <point x="398" y="135"/>
    </contour>
  </outline>
</glyph>
